<svg width="19" height="18" viewBox="0 0 19 18" fill="none" xmlns="http://www.w3.org/2000/svg">
<path d="M16.6002 6.40016L16.2888 6.22693C16.2404 6.20003 16.2167 6.18653 16.1933 6.17254C15.9611 6.03344 15.7654 5.84125 15.6225 5.61131C15.6082 5.58818 15.5946 5.56392 15.5669 5.51596C15.5393 5.46807 15.5252 5.4438 15.5124 5.41978C15.3842 5.18056 15.3149 4.91398 15.3108 4.64264C15.3104 4.61537 15.3105 4.5875 15.3114 4.53209L15.3175 4.17047C15.3272 3.5918 15.3321 3.30156 15.2508 3.04109C15.1786 2.80973 15.0577 2.59663 14.8963 2.41579C14.7139 2.21137 14.4614 2.06553 13.9559 1.77422L13.536 1.53225C13.0319 1.24176 12.7798 1.09646 12.5121 1.04107C12.2754 0.992069 12.031 0.994339 11.7951 1.0473C11.5288 1.10707 11.2798 1.25616 10.7822 1.55415L10.7793 1.55551L10.4785 1.73566C10.4309 1.76414 10.4068 1.7785 10.383 1.79176C10.1464 1.92332 9.88219 1.99607 9.61159 2.00475C9.58431 2.00563 9.55657 2.00563 9.5011 2.00563C9.44597 2.00563 9.41704 2.00563 9.38982 2.00475C9.11863 1.99603 8.85392 1.92289 8.61693 1.79078C8.59304 1.77747 8.56941 1.76299 8.52174 1.73438L8.21896 1.5526C7.71788 1.25178 7.46697 1.10115 7.19922 1.04107C6.96235 0.987926 6.71717 0.986455 6.47953 1.03609C6.21121 1.09213 5.95901 1.23851 5.45461 1.53126L5.45236 1.53225L5.03769 1.77293L5.0331 1.77574C4.53324 2.06585 4.28271 2.21125 4.10183 2.41484C3.94132 2.5955 3.82135 2.80827 3.74954 3.03902C3.66837 3.29984 3.67269 3.5907 3.68248 4.1721L3.68855 4.5332C3.68947 4.58788 3.69107 4.61506 3.69067 4.64195C3.68664 4.91384 3.61643 5.18097 3.48793 5.42061C3.47522 5.44431 3.46153 5.46801 3.43419 5.51535C3.40682 5.56272 3.39357 5.58628 3.37938 5.60914C3.23591 5.8403 3.03929 6.03361 2.80561 6.17295C2.7825 6.18673 2.75814 6.19999 2.71028 6.22651L2.40283 6.39689C1.8913 6.68037 1.63559 6.82223 1.44953 7.02411C1.28493 7.2027 1.16058 7.41454 1.08468 7.64525C0.99888 7.90605 0.998952 8.19849 1.00028 8.78332L1.00137 9.26131C1.00269 9.84223 1.0045 10.1325 1.09049 10.3915C1.16656 10.6207 1.29 10.8313 1.45368 11.0088C1.63869 11.2094 1.89185 11.3504 2.39951 11.6328L2.70421 11.8024C2.75607 11.8312 2.78217 11.8454 2.80717 11.8605C3.03873 11.9999 3.23381 12.1927 3.37606 12.4226C3.39143 12.4474 3.40618 12.4732 3.43568 12.5247C3.46481 12.5756 3.47972 12.601 3.4932 12.6266C3.61792 12.8627 3.68469 13.125 3.68924 13.392C3.68974 13.4209 3.68932 13.4501 3.68833 13.5087L3.68248 13.8552C3.67263 14.4386 3.66834 14.7307 3.74998 14.9922C3.82221 15.2236 3.94294 15.4367 4.10432 15.6175C4.28674 15.822 4.53962 15.9677 5.04516 16.259L5.46498 16.5009C5.9691 16.7914 6.22107 16.9365 6.4887 16.9919C6.72547 17.0409 6.96995 17.039 7.20587 16.9861C7.47251 16.9262 7.72235 16.7766 8.22145 16.4778L8.52232 16.2976C8.56991 16.2691 8.59402 16.2548 8.61786 16.2416C8.85449 16.11 9.11839 16.0369 9.38899 16.0282C9.41626 16.0273 9.444 16.0273 9.49948 16.0273C9.55508 16.0273 9.58279 16.0273 9.61012 16.0282C9.88131 16.0369 10.1468 16.1103 10.3838 16.2424C10.4047 16.254 10.4256 16.2666 10.4622 16.2886L10.7821 16.4806C11.2832 16.7815 11.5336 16.9317 11.8014 16.9918C12.0383 17.0449 12.2836 17.0471 12.5213 16.9974C12.7895 16.9414 13.0422 16.7947 13.5463 16.5022L13.9673 16.2579C14.4674 15.9676 14.7182 15.822 14.8992 15.6184C15.0597 15.4377 15.1798 15.225 15.2516 14.9943C15.3322 14.7353 15.3273 14.4467 15.3177 13.8737L15.3114 13.5C15.3105 13.4453 15.3104 13.4181 15.3108 13.3912C15.3148 13.1193 15.3839 12.852 15.5124 12.6124C15.5251 12.5887 15.5389 12.5648 15.5661 12.5176C15.5935 12.4703 15.6076 12.4467 15.6218 12.4238C15.7653 12.1926 15.9621 11.9992 16.1958 11.8598C16.2186 11.8462 16.2421 11.8332 16.2889 11.8073L16.2905 11.8065L16.5979 11.6362C17.1094 11.3527 17.3656 11.2107 17.5517 11.0088C17.7163 10.8302 17.8405 10.6187 17.9164 10.3879C18.0017 10.1287 18.001 9.83794 17.9997 9.25994L17.9986 8.77169C17.9973 8.19077 17.9966 7.90055 17.9106 7.64152C17.8345 7.41235 17.7104 7.20176 17.5467 7.02424C17.3619 6.82378 17.1083 6.68275 16.6017 6.40089L16.6002 6.40016Z" stroke="#959595" stroke-width="1.70066" stroke-linecap="round" stroke-linejoin="round"/>
<path d="M6.09894 9.01666C6.09894 10.8952 7.62177 12.418 9.50027 12.418C11.3788 12.418 12.9016 10.8952 12.9016 9.01666C12.9016 7.13816 11.3788 5.61534 9.50027 5.61534C7.62177 5.61534 6.09894 7.13816 6.09894 9.01666Z" stroke="#959595" stroke-width="1.70066" stroke-linecap="round" stroke-linejoin="round"/>
</svg>
