<svg width="15" height="19" viewBox="0 0 15 19" fill="none" xmlns="http://www.w3.org/2000/svg">
<path d="M8.42847 1.00082C8.3398 1 8.24023 1 8.12642 1H3.97157C2.93149 1 2.41106 1 2.0138 1.20588C1.66436 1.38697 1.38046 1.67572 1.20241 2.03114C1 2.4352 1 2.96453 1 4.02241V14.978C1 16.0358 1 16.5645 1.20241 16.9686C1.38046 17.324 1.66436 17.6132 2.0138 17.7943C2.41067 18 2.93048 18 3.96855 18L11.0313 18C12.0694 18 12.5884 18 12.9853 17.7943C13.3347 17.6132 13.6196 17.324 13.7976 16.9686C13.9998 16.5649 13.9998 16.037 13.9998 14.9812V6.97426C13.9998 6.85835 13.9998 6.75696 13.9989 6.66667M8.42847 1.00082C8.6937 1.00328 8.86149 1.01308 9.02167 1.05219C9.21116 1.09846 9.39217 1.17497 9.55833 1.27854C9.74569 1.39531 9.90656 1.55894 10.2275 1.88542L13.1297 4.83726C13.4509 5.16395 13.6106 5.32684 13.7255 5.51746C13.8273 5.68646 13.9026 5.87074 13.9481 6.06348C13.9866 6.22633 13.9964 6.39703 13.9989 6.66667M8.42847 1.00082V3.64444C8.42847 4.70232 8.42847 5.23089 8.63088 5.63495C8.80893 5.99036 9.09283 6.2799 9.44226 6.46099C9.83914 6.66667 10.3589 6.66667 11.397 6.66667H13.9989M13.9989 6.66667H14" stroke="#959595" stroke-width="1.7" stroke-linecap="round" stroke-linejoin="round"/>
</svg>
