<svg width="17" height="19" viewBox="0 0 17 19" fill="none" xmlns="http://www.w3.org/2000/svg">
<path d="M11.3125 6.71531L7.5625 10.5255L5.6875 8.62041M16 7.82508C16 14.0817 11.3424 16.8867 9.36792 17.7948L9.36543 17.7959C9.15777 17.8914 9.05367 17.9393 8.81769 17.9804C8.66825 18.0065 8.3327 18.0065 8.18325 17.9804C7.94633 17.9391 7.84115 17.8911 7.63183 17.7948C5.65731 16.8867 1 14.0817 1 7.82507V4.04835C1 2.98139 1 2.44752 1.20436 2.03999C1.38413 1.68152 1.67076 1.39029 2.02356 1.20764C2.42464 1 2.95008 1 4.00018 1H13.0002C14.0503 1 14.5746 1 14.9757 1.20764C15.3285 1.39029 15.6161 1.68152 15.7958 2.03999C16 2.44712 16 2.98035 16 4.04522V7.82508Z" stroke="#959595" stroke-width="1.7" stroke-linecap="round" stroke-linejoin="round"/>
</svg>
