<svg width="46" height="46" viewBox="0 0 46 46" fill="none" xmlns="http://www.w3.org/2000/svg">
<rect width="46" height="46" rx="10" fill="#F5F5F5"/>
<path d="M21.5025 15.2572C21.1987 14.4979 20.4633 14 19.6455 14H16.8947C15.8483 14 15 14.8481 15 15.8945C15 24.7892 22.2108 32 31.1055 32C32.1519 32 33 31.1516 33 30.1052L33.0005 27.354C33.0005 26.5361 32.5027 25.8009 31.7434 25.4971L29.1069 24.4429C28.4249 24.1701 27.6483 24.2929 27.0839 24.7632L26.4035 25.3307C25.6089 25.9929 24.4396 25.9402 23.7082 25.2088L21.7922 23.2911C21.0608 22.5596 21.0067 21.3913 21.6689 20.5967L22.2363 19.9163C22.7066 19.352 22.8305 18.5752 22.5577 17.8931L21.5025 15.2572Z" stroke="#3D3D3D" stroke-width="2" stroke-linecap="round" stroke-linejoin="round"/>
</svg>
