<svg width="46" height="46" viewBox="0 0 46 46" fill="none" xmlns="http://www.w3.org/2000/svg">
<rect width="46" height="46" rx="10" fill="#F5F5F5"/>
<path d="M15 17L21.1076 21.6123L21.1097 21.614C21.7878 22.1113 22.1271 22.3601 22.4988 22.4562C22.8272 22.5412 23.1725 22.5412 23.501 22.4562C23.8729 22.36 24.2132 22.1105 24.8926 21.6123C24.8926 21.6123 28.8101 18.6059 31 17M14 26.8002V19.2002C14 18.0801 14 17.5196 14.218 17.0918C14.4097 16.7155 14.7155 16.4097 15.0918 16.218C15.5196 16 16.0801 16 17.2002 16H28.8002C29.9203 16 30.4796 16 30.9074 16.218C31.2837 16.4097 31.5905 16.7155 31.7822 17.0918C32 17.5192 32 18.079 32 19.1969V26.8036C32 27.9215 32 28.4805 31.7822 28.9079C31.5905 29.2842 31.2837 29.5905 30.9074 29.7822C30.48 30 29.921 30 28.8031 30H17.1969C16.079 30 15.5192 30 15.0918 29.7822C14.7155 29.5905 14.4097 29.2842 14.218 28.9079C14 28.4801 14 27.9203 14 26.8002Z" stroke="#3D3D3D" stroke-width="2" stroke-linecap="round" stroke-linejoin="round"/>
</svg>
