<svg width="46" height="46" viewBox="0 0 46 46" fill="none" xmlns="http://www.w3.org/2000/svg">
<rect width="46" height="46" rx="10" fill="#F5F5F5"/>
<path d="M16 20.9229C16 25.7747 20.2445 29.7869 22.1232 31.3252C22.3921 31.5454 22.5281 31.6568 22.7287 31.7132C22.8849 31.7572 23.1148 31.7572 23.271 31.7132C23.472 31.6567 23.6071 31.5463 23.877 31.3254C25.7557 29.7871 29.9999 25.7751 29.9999 20.9233C29.9999 19.0872 29.2625 17.3261 27.9497 16.0277C26.637 14.7294 24.8566 14 23.0001 14C21.1436 14 19.363 14.7295 18.0503 16.0278C16.7375 17.3262 16 19.0867 16 20.9229Z" stroke="#3D3D3D" stroke-width="2" stroke-linecap="round" stroke-linejoin="round"/>
<path d="M21 20C21 21.1046 21.8954 22 23 22C24.1046 22 25 21.1046 25 20C25 18.8954 24.1046 18 23 18C21.8954 18 21 18.8954 21 20Z" stroke="#3D3D3D" stroke-width="2" stroke-linecap="round" stroke-linejoin="round"/>
</svg>
