<svg width="18" height="15" viewBox="0 0 18 15" fill="none" xmlns="http://www.w3.org/2000/svg">
<path fill-rule="evenodd" clip-rule="evenodd" d="M1.24355 6.48188C6.0686 4.34728 9.2939 2.96761 10.9195 2.29078C15.5123 0.364444 16.467 0.0260316 17.0862 0C17.2152 0 17.5249 0.0260318 17.7313 0.182222C17.8861 0.31238 17.9377 0.494601 17.9635 0.62476C17.9893 0.754918 18.0151 1.04127 17.9893 1.27555C17.7313 3.90475 16.6734 10.3346 16.1057 13.2761C15.8735 14.5257 15.4091 14.9422 14.9704 14.9942C14.0157 15.0723 13.2675 14.3434 12.3386 13.7447C10.8936 12.7815 10.068 12.1828 8.64884 11.2457C7.02329 10.1523 8.08119 9.55361 9.01007 8.59044C9.24229 8.33012 13.4997 4.45141 13.5771 4.08697C13.5771 4.0349 13.6029 3.87871 13.4997 3.80062C13.3965 3.72252 13.2675 3.74856 13.1643 3.77459C13.0094 3.80062 10.6872 5.36252 6.17181 8.43425C5.50095 8.90282 4.90749 9.11107 4.36564 9.11107C3.77218 9.11107 2.63688 8.77266 1.7854 8.48631C0.753302 8.1479 -0.0723748 7.96568 0.00503243 7.39298C0.0566372 7.10664 0.469476 6.79426 1.24355 6.48188Z" fill="white"/>
</svg>
