<svg width="36" height="10" viewBox="0 0 36 10" fill="none" xmlns="http://www.w3.org/2000/svg">
<mask id="mask0_76_923" style="mask-type:luminance" maskUnits="userSpaceOnUse" x="0" y="0" width="36" height="10">
<path d="M35.7263 0H0V9.08701H35.7263V0Z" fill="white"/>
</mask>
<g mask="url(#mask0_76_923)">
<path d="M13.6565 0.213623L10.5742 8.26661H12.2306L12.8703 6.5847H16.1428L16.7794 8.26661H18.4232L15.3524 0.213623H13.6565ZM13.4316 5.10674L14.51 2.27301L15.5823 5.10674H13.4316Z" fill="#3D3D3D"/>
<path d="M32.7944 2.50757C32.2147 2.50757 31.6482 2.67941 31.1663 3.00138C30.6845 3.32332 30.3091 3.78095 30.0874 4.31631C29.8655 4.85171 29.8076 5.44083 29.9205 6.0092C30.0336 6.57757 30.3126 7.09966 30.7225 7.50942C31.1321 7.91919 31.6542 8.19826 32.2226 8.31132C32.791 8.42436 33.3802 8.36635 33.9156 8.14457C34.4508 7.9228 34.9085 7.54727 35.2304 7.06542C35.5525 6.58359 35.7242 6.01709 35.7242 5.4376C35.7242 4.6605 35.4155 3.91524 34.8662 3.36576C34.3167 2.81626 33.5713 2.50757 32.7944 2.50757ZM32.7944 6.86532C32.5119 6.86532 32.236 6.78159 32.0014 6.62477C31.7666 6.46793 31.5836 6.24501 31.4755 5.98419C31.3675 5.72339 31.3392 5.43638 31.3945 5.15952C31.4495 4.88265 31.5853 4.62831 31.785 4.42871C31.9846 4.22908 32.2388 4.09313 32.5158 4.03806C32.7927 3.98299 33.0796 4.01125 33.3405 4.11929C33.6012 4.22731 33.8243 4.41027 33.9812 4.64498C34.1378 4.87971 34.2215 5.15567 34.2215 5.43798C34.222 5.62549 34.1851 5.81125 34.1136 5.98454C34.0419 6.15784 33.9369 6.31531 33.8042 6.44791C33.6717 6.58053 33.5141 6.68566 33.3408 6.75728C33.1676 6.8289 32.9818 6.8656 32.7944 6.86532Z" fill="#3D3D3D"/>
<path d="M20.3973 6.18984L19.0594 2.60913H17.4795L19.6329 8.26673H21.2002L23.3152 2.60913H21.7352L20.3973 6.18984Z" fill="#3D3D3D"/>
<path d="M28.2838 1.10571H26.7804V2.60916H25.9014V3.96001H26.7804V6.36833C26.7804 7.73174 27.5322 8.31774 28.5897 8.31774C28.9484 8.32293 29.3042 8.25346 29.6347 8.11378V6.71233C29.4549 6.77861 29.2652 6.81374 29.0737 6.8162C28.6172 6.8162 28.2838 6.63774 28.2838 6.02623V3.96001H29.6347V2.60916H28.2838V1.10571Z" fill="#3D3D3D"/>
<path d="M24.551 2.20157C25.1563 2.20157 25.647 1.71092 25.647 1.10567C25.647 0.500417 25.1563 0.00976562 24.551 0.00976562C23.9458 0.00976562 23.4551 0.500417 23.4551 1.10567C23.4551 1.71092 23.9458 2.20157 24.551 2.20157Z" fill="#3D3D3D"/>
<path d="M25.3022 2.60913H23.7988V8.26673H25.3022V2.60913Z" fill="#3D3D3D"/>
<path d="M2.94054 9.06956C4.55915 9.06956 5.87131 7.7574 5.87131 6.13878C5.87131 4.52015 4.55915 3.20801 2.94054 3.20801C1.32192 3.20801 0.00976562 4.52015 0.00976562 6.13878C0.00976562 7.7574 1.32192 9.06956 2.94054 9.06956Z" fill="#3D3D3D"/>
<path d="M8.02487 8.69962C9.00294 8.69962 9.79581 7.90673 9.79581 6.92865C9.79581 5.95058 9.00294 5.15771 8.02487 5.15771C7.0468 5.15771 6.25391 5.95058 6.25391 6.92865C6.25391 7.90673 7.0468 8.69962 8.02487 8.69962Z" fill="#3D3D3D"/>
<path d="M3.50117 2.82608C4.10643 2.82608 4.59708 2.33543 4.59708 1.73018C4.59708 1.12493 4.10643 0.634277 3.50117 0.634277C2.89592 0.634277 2.40527 1.12493 2.40527 1.73018C2.40527 2.33543 2.89592 2.82608 3.50117 2.82608Z" fill="#3D3D3D"/>
<path d="M7.33693 4.77543C8.65292 4.77543 9.71976 3.70859 9.71976 2.3926C9.71976 1.07659 8.65292 0.00976562 7.33693 0.00976562C6.02092 0.00976562 4.9541 1.07659 4.9541 2.3926C4.9541 3.70859 6.02092 4.77543 7.33693 4.77543Z" fill="#3D3D3D"/>
</g>
</svg>
