<svg width="19" height="14" viewBox="0 0 19 14" fill="none" xmlns="http://www.w3.org/2000/svg">
<path d="M18.1876 2.99405C17.974 2.19236 17.3446 1.56105 16.5453 1.3468C15.0967 0.957412 9.2879 0.957412 9.2879 0.957412C9.2879 0.957412 3.47909 0.957412 2.03045 1.3468C1.23124 1.56105 0.601767 2.19236 0.388164 2.99405C0 4.44707 0 7.47871 0 7.47871C0 7.47871 0 10.5103 0.388164 11.9635C0.601767 12.7651 1.23124 13.3964 2.03045 13.6107C3.47909 14 9.2879 14 9.2879 14C9.2879 14 15.0967 14 16.5453 13.6107C17.3446 13.3964 17.974 12.7651 18.1876 11.9635C18.5758 10.5103 18.5758 7.47871 18.5758 7.47871C18.5758 7.47871 18.5758 4.44707 18.1876 2.99405Z" fill="white"/>
<path d="M7.38812 10.2312L12.2432 7.47885L7.38812 4.72623V10.2312Z" fill="#363636"/>
</svg>
