<svg width="19" height="20" viewBox="0 0 19 20" fill="none" xmlns="http://www.w3.org/2000/svg">
<path fill-rule="evenodd" clip-rule="evenodd" d="M16.2316 2.90629C14.4458 1.03307 12.0706 0.000950389 9.5399 0C4.32519 0 0.0811965 4.44545 0.079382 9.90971C0.0784748 11.6565 0.514396 13.3615 1.34224 14.8641L0 20L5.01513 18.6219C6.39682 19.4117 7.95271 19.8275 9.53584 19.828H9.5399C14.7537 19.828 18.9982 15.382 19 9.91779C19.0009 7.26956 18.0179 4.77999 16.2316 2.90677V2.90629ZM9.5399 18.1543H9.53673C8.12598 18.1539 6.74204 17.7566 5.53454 17.0063L5.24739 16.8276L2.27124 17.6454L3.06551 14.6056L2.87862 14.2938C2.0916 12.9823 1.67564 11.4664 1.67655 9.91021C1.67836 5.36876 5.20565 1.67364 9.54312 1.67364C11.6433 1.67459 13.6175 2.53232 15.1021 4.08953C16.5868 5.64627 17.4037 7.71624 17.4028 9.91685C17.401 14.4588 13.8737 18.1539 9.5399 18.1539V18.1543ZM13.8528 11.9854C13.6165 11.8614 12.4544 11.2626 12.2375 11.1799C12.0207 11.0972 11.8633 11.0559 11.7059 11.3039C11.5485 11.552 11.0954 12.1099 10.9575 12.2748C10.8196 12.4401 10.6816 12.4606 10.4453 12.3365C10.209 12.2125 9.44738 11.9511 8.54425 11.1077C7.84162 10.4509 7.36709 9.64029 7.22924 9.39221C7.09133 9.14418 7.21472 9.01016 7.33263 8.88709C7.43876 8.7759 7.56897 8.59771 7.68735 8.45324C7.80578 8.30877 7.84478 8.20521 7.92369 8.04028C8.00264 7.87491 7.96316 7.7305 7.90421 7.60643C7.84521 7.48242 7.37258 6.26352 7.17524 5.76791C6.98334 5.28512 6.78833 5.3507 6.64361 5.34262C6.50571 5.33549 6.34832 5.33407 6.19046 5.33407C6.03261 5.33407 5.77674 5.39584 5.55993 5.6439C5.34312 5.89192 4.73254 6.49114 4.73254 7.70954C4.73254 8.92795 5.57946 10.106 5.69784 10.2714C5.81622 10.4367 7.36482 12.9377 9.73586 14.0107C10.2997 14.2658 10.7402 14.4184 11.0835 14.5324C11.6497 14.7211 12.165 14.6945 12.5723 14.6308C13.0264 14.5595 13.9708 14.0316 14.1677 13.4532C14.3645 12.8749 14.3645 12.3788 14.3056 12.2757C14.2466 12.1726 14.0888 12.1103 13.8524 11.9863L13.8528 11.9854Z" fill="#3D3D3D"/>
</svg>
