<svg width="26" height="26" viewBox="0 0 26 26" fill="none" xmlns="http://www.w3.org/2000/svg">
<path d="M6 10.9229C6 15.7747 10.2445 19.7869 12.1232 21.3252C12.3921 21.5454 12.5281 21.6568 12.7287 21.7132C12.8849 21.7572 13.1148 21.7572 13.271 21.7132C13.472 21.6567 13.6071 21.5463 13.877 21.3254C15.7557 19.7871 19.9999 15.7751 19.9999 10.9233C19.9999 9.08718 19.2625 7.32605 17.9497 6.02772C16.637 4.72939 14.8566 4 13.0001 4C11.1436 4 9.36301 4.7295 8.05025 6.02783C6.7375 7.32616 6 9.08674 6 10.9229Z" stroke="#959595" stroke-width="2" stroke-linecap="round" stroke-linejoin="round"/>
<path d="M11 10C11 11.1046 11.8954 12 13 12C14.1046 12 15 11.1046 15 10C15 8.89543 14.1046 8 13 8C11.8954 8 11 8.89543 11 10Z" stroke="#959595" stroke-width="2" stroke-linecap="round" stroke-linejoin="round"/>
</svg>
