<svg width="26" height="26" viewBox="0 0 26 26" fill="none" xmlns="http://www.w3.org/2000/svg">
<path d="M5 7L11.1076 11.6123L11.1097 11.614C11.7878 12.1113 12.1271 12.3601 12.4988 12.4562C12.8272 12.5412 13.1725 12.5412 13.501 12.4562C13.8729 12.36 14.2132 12.1105 14.8926 11.6123C14.8926 11.6123 18.8101 8.60594 21 7M4 16.8002V9.2002C4 8.08009 4 7.51962 4.21799 7.0918C4.40973 6.71547 4.71547 6.40973 5.0918 6.21799C5.51962 6 6.08009 6 7.2002 6H18.8002C19.9203 6 20.4796 6 20.9074 6.21799C21.2837 6.40973 21.5905 6.71547 21.7822 7.0918C22 7.5192 22 8.07899 22 9.19691V16.8036C22 17.9215 22 18.4805 21.7822 18.9079C21.5905 19.2842 21.2837 19.5905 20.9074 19.7822C20.48 20 19.921 20 18.8031 20H7.19691C6.07899 20 5.5192 20 5.0918 19.7822C4.71547 19.5905 4.40973 19.2842 4.21799 18.9079C4 18.4801 4 17.9203 4 16.8002Z" stroke="#959595" stroke-width="2" stroke-linecap="round" stroke-linejoin="round"/>
</svg>
