<svg width="26" height="26" viewBox="0 0 26 26" fill="none" xmlns="http://www.w3.org/2000/svg">
<g clip-path="url(#clip0_0_331)">
<path d="M10.5025 5.25722C10.1987 4.4979 9.46332 4 8.64551 4H5.89474C4.8483 4 4 4.8481 4 5.89453C4 14.7892 11.2108 22 20.1055 22C21.1519 22 22 21.1516 22 20.1052L22.0005 17.354C22.0005 16.5361 21.5027 15.8009 20.7434 15.4971L18.1069 14.4429C17.4249 14.1701 16.6483 14.2929 16.0839 14.7632L15.4035 15.3307C14.6089 15.9929 13.4396 15.9402 12.7082 15.2088L10.7922 13.2911C10.0608 12.5596 10.0067 11.3913 10.6689 10.5967L11.2363 9.9163C11.7066 9.35195 11.8305 8.57516 11.5577 7.89309L10.5025 5.25722Z" stroke="#959595" stroke-width="2" stroke-linecap="round" stroke-linejoin="round"/>
<g clip-path="url(#clip1_0_331)">
<path d="M134.748 33.0907L268.401 166.744L200.754 234.392C188.963 246.133 174.958 255.416 159.551 261.7C144.145 267.984 127.643 271.146 111.004 271C-43.6198 271 -240.996 73.624 -240.996 -81C-241.131 -97.6404 -237.965 -114.142 -231.682 -129.551C-225.398 -144.96 -216.121 -158.97 -204.388 -170.771L-136.74 -238.397L-3.08649 -104.744L-91.0865 -16.744C-64.925 45.4274 -15.533 94.9342 46.5775 121.24L134.748 33.0907ZM228.337 -27.6667H271.004C270.942 -84.2271 248.446 -138.453 208.452 -178.448C168.457 -218.442 114.231 -240.938 57.6708 -241V-198.333C102.919 -198.283 146.299 -180.285 178.294 -148.29C210.289 -116.295 228.287 -72.9147 228.337 -27.6667ZM143.004 -27.6667H185.671C185.637 -61.604 172.14 -94.1416 148.143 -118.139C124.146 -142.136 91.6082 -155.633 57.6708 -155.667V-113C80.3026 -113 102.007 -104.01 118.011 -88.0064C134.014 -72.0033 143.004 -50.2985 143.004 -27.6667Z" fill="white"/>
</g>
</g>
<defs>
<clipPath id="clip0_0_331">
<rect width="26" height="26" fill="white"/>
</clipPath>
<clipPath id="clip1_0_331">
<rect width="512" height="512" fill="white" transform="translate(-241 -241)"/>
</clipPath>
</defs>
</svg>
