<svg width="37" height="37" viewBox="0 0 37 37" fill="none" xmlns="http://www.w3.org/2000/svg">
<rect width="37" height="37" rx="4.5122" fill="#F9F9F9"/>
<g clip-path="url(#clip0_54_1976)">
<path d="M17.7683 11.1408C13.6068 11.2094 10.1007 14.6478 9.95251 18.8044C9.86499 21.2193 10.8616 23.5119 12.6877 25.0964C13.4745 25.7797 13.925 26.83 13.925 28.0484C13.925 29.6935 15.2638 31.0323 16.9089 31.0323H18.8982C20.5433 31.0323 21.882 29.6935 21.882 28.0484V27.6754C21.882 26.7146 22.3346 25.7876 23.1571 25.0635C24.8758 23.5537 25.8605 21.3795 25.8605 19.0968C25.8605 16.9474 25.0161 14.9323 23.4834 13.4245C21.9507 11.9166 19.9196 11.0921 17.7683 11.1408ZM19.8928 28.0484C19.8928 28.5974 19.4472 29.043 18.8982 29.043H16.9089C16.3599 29.043 15.9143 28.5974 15.9143 27.9798C15.9143 27.6655 15.8835 27.3571 15.8377 27.0538H19.9336C19.9087 27.2587 19.8928 27.4666 19.8928 27.6754V28.0484ZM21.8442 23.5696C21.336 24.0162 20.9262 24.5215 20.6109 25.0645H18.8982V20.903C20.0529 20.4913 20.8874 19.3972 20.8874 18.1022C20.8874 17.5521 20.4428 17.1075 19.8928 17.1075C19.3428 17.1075 18.8982 17.5521 18.8982 18.1022C18.8982 18.6522 18.4526 19.0968 17.9035 19.0968C17.3545 19.0968 16.9089 18.6512 16.9089 18.1022C16.9089 17.5531 16.4643 17.1075 15.9143 17.1075C15.3643 17.1075 14.9197 17.5521 14.9197 18.1022C14.9197 19.3972 15.7542 20.4913 16.9089 20.903V25.0645H15.1723C14.864 24.5095 14.4691 24.0102 13.9907 23.5945C12.6221 22.4059 11.8741 20.6862 11.9398 18.876C12.0512 15.7588 14.681 13.1808 17.8021 13.13C17.8359 13.13 17.8687 13.13 17.9035 13.13C19.481 13.13 20.964 13.7358 22.0889 14.8438C23.2387 15.9747 23.8723 17.4855 23.8723 19.0978C23.8723 20.8085 23.1333 22.4377 21.8452 23.5706L21.8442 23.5696ZM22.6628 9.62201L23.8912 7.62282C24.1776 7.15336 24.7903 7.00715 25.2588 7.29658C25.7272 7.58403 25.8735 8.19572 25.585 8.66419L24.3567 10.6634C24.1697 10.9697 23.8424 11.1378 23.5082 11.1378C23.3302 11.1378 23.1512 11.0901 22.989 10.9906C22.5206 10.7032 22.3744 10.0905 22.6628 9.62201ZM29.2552 13.7477L27.3326 14.615C27.2003 14.6757 27.061 14.7035 26.9248 14.7035C26.5448 14.7035 26.1838 14.4857 26.0177 14.1177C25.7909 13.6174 26.0137 13.0276 26.515 12.8028L28.4376 11.9355C28.9409 11.7077 29.5277 11.9325 29.7525 12.4328C29.9793 12.9331 29.7565 13.5229 29.2552 13.7477ZM10.1395 8.66319C9.85206 8.19473 9.99926 7.58204 10.4677 7.29559C10.9382 7.00914 11.5489 7.15634 11.8353 7.62381L13.0607 9.624C13.3482 10.0925 13.201 10.7052 12.7325 10.9916C12.5704 11.0911 12.3903 11.1378 12.2143 11.1378C11.8791 11.1378 11.5529 10.9687 11.3649 10.6624L10.1395 8.6622V8.66319ZM9.6591 14.1844C9.48902 14.5414 9.13294 14.7493 8.76195 14.7493C8.61773 14.7493 8.47152 14.7185 8.33327 14.6508L6.54493 13.7945C6.04961 13.5577 5.83975 12.9639 6.07746 12.4686C6.31319 11.9723 6.90996 11.7605 7.40329 12.0012L9.19163 12.8575C9.68695 13.0942 9.89682 13.689 9.6591 14.1844Z" fill="#DADADA"/>
</g>
<defs>
<clipPath id="clip0_54_1976">
<rect width="23.871" height="23.871" fill="white" transform="translate(5.96777 7.16138)"/>
</clipPath>
</defs>
</svg>
