<svg width="37" height="37" viewBox="0 0 37 37" fill="none" xmlns="http://www.w3.org/2000/svg">
<rect width="37" height="37" rx="4.5122" fill="#F9F9F9"/>
<path d="M17.3622 30C17.0304 29.9989 16.7028 29.9296 16.402 29.7968C15.9108 29.5899 15.5163 29.2204 15.2925 28.7578C15.0687 28.2951 15.031 27.7711 15.1866 27.2841L16.7677 22.3333H13.0423C12.5677 22.3339 12.0995 22.2292 11.6753 22.0277C11.2511 21.8263 10.8827 21.5336 10.5997 21.1731C10.3166 20.8127 10.1267 20.3945 10.0451 19.9521C9.96363 19.5097 9.99279 19.0554 10.1303 18.6256L13.1932 9.04225C13.3799 8.4495 13.7648 7.93004 14.29 7.56181C14.8153 7.19359 15.4526 6.99647 16.1063 7.00005H19.8468C20.272 7.00038 20.6907 7.09811 21.0673 7.28487C21.4439 7.47164 21.767 7.74188 22.0092 8.07252C22.2514 8.40316 22.4053 8.78435 22.4579 9.18353C22.5105 9.5827 22.4601 9.98799 22.3112 10.3647L20.6065 14.6667H23.1964C23.7485 14.6667 24.2901 14.8089 24.7632 15.0782C25.2363 15.3475 25.6228 15.7336 25.8814 16.1951C26.14 16.6567 26.2608 17.1761 26.2308 17.6977C26.2009 18.2192 26.0213 18.7232 25.7114 19.1555L19.229 29.0263C19.0286 29.3233 18.7527 29.568 18.4266 29.7381C18.1005 29.9081 17.7346 29.9982 17.3622 30ZM16.1063 8.91671C15.8887 8.91651 15.6769 8.98257 15.5022 9.10511C15.3274 9.22765 15.199 9.40017 15.1359 9.59713L12.073 19.1804C12.0271 19.3236 12.0173 19.475 12.0444 19.6224C12.0715 19.7698 12.1346 19.9092 12.2289 20.0293C12.3231 20.1495 12.4457 20.2471 12.587 20.3144C12.7282 20.3816 12.8842 20.4167 13.0423 20.4167H18.132C18.2902 20.4167 18.4461 20.4517 18.5873 20.519C18.7286 20.5863 18.8512 20.6839 18.9455 20.804C19.0397 20.9242 19.1029 21.0636 19.1299 21.211C19.157 21.3584 19.1472 21.5097 19.1013 21.6529L17.1293 27.8265C17.1202 27.8492 17.1161 27.8735 17.1174 27.8977C17.1187 27.922 17.1254 27.9458 17.1369 27.9675C17.1484 27.9892 17.1646 28.0084 17.1844 28.0239C17.2042 28.0394 17.2271 28.0508 17.2518 28.0575C17.2742 28.071 17.2994 28.08 17.3257 28.0839C17.352 28.0877 17.3788 28.0863 17.4045 28.0797C17.4301 28.0731 17.4541 28.0615 17.4747 28.0456C17.4953 28.0297 17.5122 28.0099 17.5243 27.9875L24.0067 18.1167C24.1201 17.9712 24.1877 17.7984 24.2016 17.6181C24.2156 17.4379 24.1754 17.2576 24.0857 17.098C24.0026 16.9425 23.8754 16.8121 23.7183 16.7212C23.5612 16.6303 23.3805 16.5826 23.1964 16.5834H19.1449C18.9812 16.5835 18.8199 16.546 18.6748 16.4742C18.5298 16.4024 18.4053 16.2985 18.312 16.1712C18.2187 16.0439 18.1594 15.8971 18.1392 15.7434C18.1189 15.5897 18.1384 15.4337 18.1958 15.2887L20.414 9.692C20.4481 9.60523 20.4596 9.51196 20.4474 9.42011C20.4352 9.32826 20.3998 9.24055 20.3441 9.16444C20.2884 9.08833 20.2141 9.02606 20.1275 8.98293C20.041 8.9398 19.9447 8.91708 19.8468 8.91671H16.1063Z" fill="#DADADA"/>
</svg>
