<svg width="37" height="37" viewBox="0 0 37 37" fill="none" xmlns="http://www.w3.org/2000/svg">
<rect width="37" height="37" rx="4.5122" fill="#F9F9F9"/>
<path d="M22.4375 8C18.7572 8 15.875 9.72987 15.875 11.9375V14.2011C15.4515 14.1512 15.0131 14.125 14.5625 14.125C10.8823 14.125 8 15.8549 8 18.0625V25.0625C8 27.2701 10.8823 29 14.5625 29C17.5515 29 20.0146 27.859 20.8336 26.2472C21.356 26.3234 21.8898 26.375 22.4375 26.375C26.1178 26.375 29 24.6451 29 22.4375V11.9375C29 9.72987 26.1178 8 22.4375 8ZM22.4375 9.75C25.192 9.75 27.25 10.905 27.25 11.9375C27.25 12.97 25.192 14.125 22.4375 14.125C19.683 14.125 17.625 12.97 17.625 11.9375C17.625 10.905 19.683 9.75 22.4375 9.75ZM14.5625 15.875C17.317 15.875 19.375 17.03 19.375 18.0625C19.375 19.095 17.317 20.25 14.5625 20.25C11.808 20.25 9.75 19.095 9.75 18.0625C9.75 17.03 11.808 15.875 14.5625 15.875ZM9.75 20.7592C10.94 21.5249 12.6401 22 14.5625 22C16.4849 22 18.185 21.5249 19.375 20.7592V21.5625C19.375 22.595 17.317 23.75 14.5625 23.75C11.808 23.75 9.75 22.595 9.75 21.5625V20.7592ZM14.5625 27.25C11.808 27.25 9.75 26.095 9.75 25.0625V24.2593C10.94 25.0249 12.6401 25.5 14.5625 25.5C16.4849 25.5 18.185 25.0249 19.375 24.2593V25.0625C19.375 26.095 17.317 27.25 14.5625 27.25ZM22.4375 24.625C21.9878 24.625 21.552 24.5839 21.125 24.5235V22.791C21.5555 22.8417 21.9913 22.875 22.4375 22.875C24.3599 22.875 26.06 22.3999 27.25 21.6342V22.4375C27.25 23.47 25.192 24.625 22.4375 24.625ZM22.4375 21.125C21.9878 21.125 21.552 21.0839 21.125 21.0235V19.291C21.5555 19.3418 21.9913 19.375 22.4375 19.375C24.3599 19.375 26.06 18.8999 27.25 18.1342V18.9375C27.25 19.97 25.192 21.125 22.4375 21.125ZM22.4375 17.625C21.9633 17.625 21.5048 17.5804 21.0568 17.5139C20.8835 16.7378 20.3489 16.0404 19.5509 15.483C20.4189 15.7324 21.3936 15.8759 22.4375 15.8759C24.3599 15.8759 26.06 15.4008 27.25 14.6351V15.4384C27.25 16.4709 25.192 17.6259 22.4375 17.6259V17.625Z" fill="#DADADA"/>
</svg>
