<svg width="37" height="37" viewBox="0 0 37 37" fill="none" xmlns="http://www.w3.org/2000/svg">
<rect width="37" height="37" rx="4.5122" fill="#F9F9F9"/>
<path d="M28.4689 19.89L28.011 19.63C28.1127 19.09 28.1636 18.54 28.1636 18C28.1636 17.46 28.1127 16.92 28.011 16.37L28.4689 16.11C29.9241 15.29 30.4329 13.45 29.5984 12.01C29.1914 11.32 28.5299 10.82 27.7464 10.61C26.9628 10.4 26.1385 10.51 25.4262 10.91L24.9683 11.17C24.1135 10.45 23.1264 9.89 22.0579 9.52V9C22.0579 7.35 20.6841 6 19.0051 6C17.326 6 15.9523 7.35 15.9523 9V9.52C14.8838 9.89 13.8967 10.45 13.0419 11.17L12.584 10.91C11.8818 10.51 11.0575 10.41 10.2638 10.61C9.48024 10.82 8.81879 11.32 8.41175 12.01C7.5773 13.44 8.07593 15.28 9.53112 16.11L9.98904 16.37C9.88728 16.91 9.8364 17.46 9.8364 18C9.8364 18.54 9.88728 19.08 9.98904 19.63L9.53112 19.89C8.07593 20.71 7.56713 22.55 8.40157 23.99C8.80861 24.68 9.47006 25.18 10.2536 25.39C11.0372 25.6 11.8615 25.49 12.5738 25.09L13.0317 24.83C13.8865 25.55 14.8736 26.11 15.9421 26.48V27C15.9421 28.65 17.3159 30 18.9949 30C20.674 30 22.0477 28.65 22.0477 27V26.48C23.1162 26.11 24.1033 25.55 24.9581 24.83L25.416 25.09C26.1182 25.49 26.9425 25.6 27.7362 25.39C28.5198 25.18 29.1812 24.68 29.5883 23.99C30.4227 22.56 29.9241 20.72 28.4689 19.89ZM25.8638 16.15C26.0368 16.77 26.1284 17.4 26.1284 18.01C26.1284 18.62 26.0368 19.24 25.8638 19.87C25.7417 20.31 25.935 20.77 26.3421 21L27.4513 21.63C27.9397 21.91 28.1025 22.52 27.8278 23C27.6955 23.23 27.4716 23.4 27.207 23.47C26.9425 23.54 26.6677 23.51 26.4337 23.37L25.3245 22.74C24.9174 22.51 24.4188 22.58 24.0931 22.91C23.1875 23.82 22.0477 24.47 20.7859 24.79C20.3382 24.9 20.0227 25.3 20.0227 25.76V27.02C20.0227 27.57 19.5648 28.02 19.0051 28.02C18.4454 28.02 17.9875 27.57 17.9875 27.02V25.76C17.9875 25.3 17.672 24.91 17.2243 24.79C15.9624 24.47 14.8227 23.82 13.917 22.91C13.7237 22.71 13.4591 22.61 13.1843 22.61C13.0114 22.61 12.8384 22.65 12.6755 22.74L11.5663 23.37C11.3323 23.5 11.0575 23.54 10.793 23.47C10.5284 23.4 10.3147 23.23 10.1722 23C9.89746 22.52 10.0603 21.91 10.5487 21.63L11.6579 21C12.065 20.77 12.2583 20.31 12.1362 19.87C11.9632 19.25 11.8716 18.62 11.8716 18.01C11.8716 17.4 11.9632 16.78 12.1362 16.15C12.2583 15.71 12.065 15.25 11.6579 15.02L10.5487 14.39C10.0603 14.11 9.89746 13.5 10.1722 13.02C10.3045 12.79 10.5284 12.62 10.793 12.55C11.0575 12.48 11.3323 12.52 11.5663 12.65L12.6755 13.28C13.0826 13.51 13.5812 13.44 13.9069 13.11C14.8125 12.2 15.9523 11.55 17.2141 11.23C17.6618 11.12 17.9773 10.72 17.9773 10.26V9C17.9773 8.45 18.4352 8 18.9949 8C19.5546 8 20.0125 8.45 20.0125 9V10.26C20.0125 10.72 20.328 11.11 20.7757 11.23C22.0376 11.55 23.1773 12.2 24.083 13.11C24.4086 13.44 24.9174 13.51 25.3143 13.28L26.4235 12.65C26.6575 12.52 26.9323 12.48 27.1969 12.55C27.4614 12.62 27.6751 12.79 27.8176 13.02C28.0924 13.5 27.9295 14.11 27.4411 14.39L26.3319 15.02C25.9249 15.25 25.7315 15.71 25.8536 16.15H25.8638ZM20.8164 14.21L19.1883 22.21C19.0967 22.69 18.6693 23.01 18.191 23.01C18.1299 23.01 18.0587 23.01 17.9875 22.99C17.438 22.88 17.0818 22.36 17.1937 21.81L18.8219 13.81C18.9339 13.27 19.463 12.92 20.0227 13.03C20.5722 13.14 20.9284 13.66 20.8164 14.21ZM16.166 16.86L14.9346 18.07L16.166 19.26C16.5628 19.65 16.5628 20.28 16.166 20.67C15.9624 20.87 15.708 20.96 15.4434 20.96C15.1789 20.96 14.9245 20.86 14.7209 20.67L13.4896 19.46C12.6959 18.68 12.6959 17.42 13.4896 16.65L14.7209 15.44C15.1178 15.05 15.7589 15.05 16.1558 15.44C16.5526 15.83 16.5526 16.46 16.1558 16.85L16.166 16.86ZM24.5205 16.66C25.3143 17.44 25.3143 18.7 24.5205 19.47L23.2892 20.68C23.0857 20.88 22.8313 20.97 22.5667 20.97C22.3022 20.97 22.0477 20.87 21.8442 20.68C21.4474 20.29 21.4474 19.66 21.8442 19.27L23.0755 18.06L21.8442 16.86C21.4474 16.47 21.4474 15.84 21.8442 15.45C22.2411 15.06 22.8822 15.06 23.2791 15.45L24.5104 16.66H24.5205Z" fill="#DADADA"/>
</svg>
