<svg width="19" height="12" viewBox="0 0 19 12" fill="none" xmlns="http://www.w3.org/2000/svg">
<path fill-rule="evenodd" clip-rule="evenodd" d="M2.79128 0H0.712678C0.118786 0 0 0.297348 0 0.625137C0 1.21067 0.704698 4.11461 3.28118 7.9553C4.99884 10.5782 7.41884 12 9.621 12C10.9423 12 11.1057 11.6842 11.1057 11.1403V9.15789C11.1057 8.52632 11.2309 8.40025 11.6493 8.40025C11.9576 8.40025 12.4861 8.56421 13.7193 9.82882C15.1287 11.3276 15.361 12 16.1537 12H18.2323C18.8263 12 19.1232 11.6842 18.9519 11.061C18.7644 10.4399 18.0916 9.53874 17.1987 8.47055C16.7142 7.86164 15.9875 7.20594 15.7673 6.87802C15.459 6.4565 15.547 6.26911 15.7673 5.89446C15.7673 5.89446 18.2997 2.10057 18.564 0.81259C18.6961 0.344147 18.564 0 17.9354 0H15.8568C15.3283 0 15.0846 0.297348 14.9525 0.625137C14.9525 0.625137 13.8955 3.36518 12.398 5.14503C11.9135 5.66021 11.6933 5.82417 11.429 5.82417C11.2969 5.82417 11.1057 5.66021 11.1057 5.1919V0.81259C11.1057 0.250484 10.9523 0 10.5118 0H7.24541C6.91516 0 6.7165 0.260842 6.7165 0.508105C6.7165 1.0409 7.46521 1.16381 7.5424 2.66261V5.91789C7.5424 6.63158 7.42116 6.76099 7.15694 6.76099C6.45228 6.76099 4.73818 4.0087 3.72156 0.85939C3.52236 0.247264 3.3225 0 2.79128 0Z" fill="#3D3D3D"/>
</svg>
