<svg width="72" height="67" viewBox="0 0 72 67" fill="none" xmlns="http://www.w3.org/2000/svg">
<rect width="72" height="67" rx="10" fill="#E85B25"/>
<path d="M28.3579 19.2212C28.8424 19.1548 29.454 19.0762 29.7205 19.046C29.9869 19.0098 30.7923 18.9916 31.5069 19.0037C32.2215 19.0098 33.0815 19.0521 33.4145 19.0883C33.7476 19.1246 34.3593 19.2152 34.7771 19.2816C35.195 19.3481 35.8187 19.4689 36.17 19.5535C36.5212 19.6441 37.0904 19.8072 37.4417 19.922C37.7929 20.0428 38.3622 20.2603 38.7134 20.4174C39.0647 20.5684 39.6218 20.8766 39.9549 21.1001C40.2879 21.3176 40.73 21.668 40.9299 21.8794C41.1539 22.115 41.378 22.4232 41.4931 22.6588C41.6384 22.9608 41.6808 23.13 41.6808 23.4139C41.6808 23.6918 41.6384 23.861 41.4991 24.151C41.3962 24.3624 41.1721 24.6826 41.0025 24.8699C40.8269 25.0572 40.5302 25.3291 40.3485 25.468C40.1668 25.607 39.7671 25.8668 39.4704 26.0359C39.1737 26.2051 38.5862 26.483 38.1684 26.64C37.7505 26.8032 37.1631 27.0086 36.8664 27.0932C36.5696 27.1777 36.0064 27.3167 35.6249 27.3952C35.2434 27.4798 34.6136 27.5885 34.2321 27.6369C33.8506 27.6912 33.0451 27.7577 32.4456 27.794C31.7492 27.8302 30.968 27.8302 30.2958 27.794C29.7144 27.7577 28.9392 27.6973 28.5698 27.649C28.2065 27.6006 27.6191 27.504 27.2678 27.4315C26.9166 27.365 26.3897 27.2381 26.0869 27.1536C25.7841 27.069 25.3118 26.918 25.0272 26.8213C24.7425 26.7246 24.1612 26.4709 23.7251 26.2594C23.2891 26.048 22.7199 25.7157 22.4534 25.5163C22.187 25.323 21.8418 25.0089 21.6843 24.8276C21.5269 24.6464 21.321 24.3504 21.2301 24.1691C21.1029 23.9033 21.0666 23.7523 21.0666 23.4139C21.0666 23.0696 21.0969 22.9306 21.2362 22.6588C21.327 22.4775 21.5329 22.1815 21.6843 22.0003C21.8418 21.819 22.187 21.5109 22.4534 21.3115C22.7199 21.1122 23.2891 20.7799 23.7251 20.5684C24.1612 20.351 24.8818 20.061 25.3299 19.9099C25.7781 19.7649 26.4503 19.5777 26.8136 19.4931C27.177 19.4085 27.8734 19.2877 28.3579 19.2212Z" fill="white"/>
<path d="M21.2543 30.0897C21.0666 29.7151 21.0606 29.6668 21.0484 28.9177L21.0363 28.1383L21.2604 28.2773C21.3815 28.3558 21.6722 28.525 21.9084 28.6518C22.1385 28.7847 22.6048 29.0143 22.9379 29.1653C23.271 29.3164 23.9371 29.5701 24.4216 29.7272C24.906 29.8843 25.6691 30.1018 26.1172 30.1984C26.5653 30.3011 27.3163 30.4401 27.7826 30.5065C28.2489 30.579 28.9998 30.6636 29.4479 30.6999C29.9627 30.7422 30.8771 30.7542 31.9308 30.7301C32.8453 30.7119 33.687 30.6817 33.79 30.6636C33.9232 30.6455 33.9898 30.6576 33.9898 30.7059C33.9959 30.7482 33.9475 30.8267 33.8929 30.8751C33.8384 30.9234 33.6023 31.2496 33.3721 31.6C33.136 31.9504 32.7787 32.5727 32.2034 33.7326L30.8105 33.6964C30.0414 33.6722 29.1149 33.6179 28.7515 33.5695C28.3821 33.5212 27.8674 33.4427 27.6009 33.3883C27.3344 33.34 26.8681 33.2433 26.5714 33.1708C26.2686 33.0983 25.6994 32.9352 25.2997 32.8083C24.9 32.6754 24.1914 32.3794 23.7251 32.1498C23.2588 31.9202 22.7017 31.6 22.4837 31.4369C22.2657 31.2678 21.9447 30.9899 21.7691 30.8086C21.5935 30.6274 21.3573 30.3072 21.2543 30.0897Z" fill="white"/>
<path d="M41.166 29.5399C41.3356 29.5037 41.699 29.4372 41.9836 29.3949C42.2682 29.3526 42.7466 29.3103 43.0434 29.3103C43.3462 29.3043 43.8367 29.3285 44.1334 29.3647C44.4362 29.401 44.9267 29.4855 45.2235 29.552C45.5263 29.6245 46.041 29.7876 46.3741 29.9145C46.7072 30.0414 47.228 30.283 47.5247 30.4582C47.8275 30.6274 48.2756 30.9234 48.5239 31.1167C48.7722 31.304 49.178 31.6604 49.4263 31.9081C49.6745 32.1498 50.0318 32.5546 50.2196 32.8083C50.4073 33.056 50.6556 33.4245 50.7767 33.6239C50.8978 33.8233 51.0735 34.1495 51.1764 34.3489C51.2733 34.5482 51.4368 34.953 51.5398 35.2551C51.6427 35.5511 51.788 36.0827 51.8607 36.4331C51.9697 36.9406 52 37.2669 52 38.0945C52 38.7953 51.9697 39.2907 51.9031 39.6653C51.8486 39.9613 51.7275 40.4386 51.6366 40.7225C51.5519 41.0004 51.3702 41.4777 51.2309 41.7798C51.0977 42.0758 50.8797 42.4987 50.7464 42.7162C50.6132 42.9276 50.3831 43.272 50.2317 43.4714C50.0803 43.6707 49.7593 44.0332 49.5292 44.2749C49.293 44.5226 48.8812 44.8911 48.6148 45.0965C48.3483 45.3019 47.9668 45.5677 47.7669 45.6886C47.5671 45.8033 47.2401 45.9846 47.0402 46.0813C46.8404 46.1779 46.4892 46.3289 46.253 46.4135C46.0229 46.5041 45.6656 46.6189 45.4657 46.6733C45.2659 46.7277 44.7875 46.8243 44.4059 46.8848C44.0244 46.9512 43.4733 46.9995 43.1827 46.9995C42.892 47.0056 42.3288 46.9512 41.9412 46.8848C41.5476 46.8183 40.9844 46.6975 40.6816 46.6069C40.3848 46.5223 39.9488 46.3712 39.7126 46.2685C39.4825 46.1658 39.1131 45.9846 38.8951 45.8638C38.6771 45.749 38.3682 45.5556 38.1987 45.4409C38.0352 45.32 37.6779 45.0482 37.4175 44.8307C37.151 44.6132 36.7513 44.2205 36.5212 43.9547C36.2911 43.6889 35.9641 43.266 35.8005 43.0183C35.631 42.7645 35.3766 42.3175 35.2313 42.0214C35.086 41.7194 34.8801 41.2179 34.7771 40.9038C34.6681 40.5836 34.5409 40.1244 34.4925 39.8767C34.444 39.623 34.3835 39.1336 34.3593 38.7893C34.335 38.4389 34.335 37.8408 34.3653 37.4602C34.3895 37.0735 34.4683 36.5298 34.5349 36.2519C34.6075 35.968 34.7287 35.5209 34.8195 35.2551C34.9043 34.9893 35.086 34.5543 35.2192 34.2885C35.3464 34.0226 35.631 33.5454 35.8369 33.2312C36.0488 32.911 36.4485 32.4156 36.7271 32.1196C37.0057 31.8236 37.4477 31.4127 37.7142 31.2013C37.9807 30.9959 38.4046 30.7059 38.6529 30.5609C38.9012 30.4099 39.3251 30.1924 39.5915 30.0776C39.858 29.9568 40.2516 29.8057 40.4696 29.7332C40.6876 29.6668 41.0025 29.5762 41.166 29.5399Z" fill="white"/>
<path d="M21.2301 35.9498C21.0908 35.6538 21.0666 35.5209 21.0363 34.8141L21 34.0045L21.5147 34.3187C21.7994 34.4878 22.2596 34.7355 22.5442 34.8684C22.8289 35.0074 23.3315 35.2249 23.6646 35.3517C23.9977 35.4846 24.6517 35.6961 25.118 35.829C25.5843 35.9619 26.3897 36.1492 26.9045 36.2459C27.4192 36.3425 28.0914 36.4513 28.3882 36.4875C28.691 36.5238 29.3026 36.5781 29.7507 36.6144C30.1989 36.6446 30.7621 36.6748 31.4161 36.6748V39.6411L30.6894 39.6049C30.2897 39.5807 29.6478 39.5384 29.2663 39.5022C28.8847 39.472 28.2549 39.3874 27.8734 39.3209C27.4919 39.2605 26.8924 39.1336 26.5411 39.0491C26.1899 38.9645 25.6206 38.8014 25.2694 38.6866C24.9181 38.5718 24.252 38.2939 23.7857 38.0643C23.3194 37.8408 22.7199 37.4904 22.4534 37.2971C22.187 37.0977 21.8418 36.7896 21.6783 36.6083C21.5208 36.4271 21.321 36.1311 21.2301 35.9498Z" fill="white"/>
<path d="M21.2543 41.8764C21.0727 41.5019 21.0606 41.4475 21.0545 40.7044L21.0424 39.919L21.2665 40.058C21.3876 40.1365 21.6661 40.2996 21.8842 40.4265C22.0961 40.5473 22.5564 40.7769 22.8955 40.9279C23.2346 41.085 23.8765 41.3267 24.3186 41.4777C24.7607 41.6227 25.3966 41.81 25.7296 41.8946C26.0627 41.9791 26.632 42.1 27.0014 42.1725C27.3647 42.2389 27.9945 42.3356 28.3942 42.39C28.7939 42.4443 29.8173 42.5047 32.2336 42.5712L32.4456 43.0545C32.5667 43.3203 32.815 43.7916 33.0027 44.1118C33.1905 44.4259 33.4569 44.8246 33.5962 44.9998C33.7294 45.175 33.8263 45.3321 33.8142 45.3442C33.7961 45.3623 33.4388 45.4046 33.027 45.4409C32.5485 45.4892 31.7371 45.5013 30.8468 45.4771C30.0596 45.459 29.0967 45.4046 28.697 45.3502C28.2973 45.2959 27.6251 45.1811 27.2133 45.0965C26.7955 45.0119 26.1414 44.8488 25.7599 44.734C25.3723 44.6192 24.8818 44.4561 24.6699 44.3715C24.4518 44.287 24.0279 44.0997 23.7312 43.9547C23.4284 43.8097 22.9803 43.5559 22.732 43.3928C22.4776 43.2237 22.0901 42.9035 21.8599 42.6739C21.5935 42.4081 21.3815 42.1302 21.2543 41.8764Z" fill="white"/>
</svg>
