<svg width="72" height="67" viewBox="0 0 72 67" fill="none" xmlns="http://www.w3.org/2000/svg">
<rect width="72" height="67" rx="10" fill="#E85B25"/>
<path fill-rule="evenodd" clip-rule="evenodd" d="M35.8984 13.001C36.9062 12.9931 37.4688 13.0322 38.1562 13.1494C38.6641 13.2354 39.4141 13.3917 39.8203 13.4932C40.2266 13.6026 40.8828 13.8058 41.2656 13.9542C41.6484 14.1027 42.3047 14.3918 42.7109 14.595C43.1172 14.7981 43.7891 15.1888 44.1953 15.4545C44.6016 15.728 45.2891 16.2437 45.7109 16.6031C46.1406 16.9548 46.7891 17.5877 47.1484 17.994C47.5078 18.4003 48.0859 19.1583 48.4297 19.674C48.7734 20.1897 49.25 21.0023 49.4766 21.4712C49.7031 21.94 50.0312 22.7604 50.2109 23.2918C50.3828 23.8153 50.5234 24.2998 50.5234 24.3623C50.5234 24.456 50.3984 24.4795 49.8594 24.4795C49.4062 24.4795 49.0391 24.5264 48.7031 24.6358C48.4375 24.7217 48.2188 24.7842 48.2188 24.7764C48.2188 24.7608 48.1016 24.4014 47.9609 23.9716C47.8203 23.5418 47.5547 22.8777 47.3672 22.487C47.1797 22.0963 46.7734 21.393 46.4531 20.9242C46.1328 20.4397 45.5312 19.713 45.0938 19.252C44.6641 18.8066 43.9922 18.205 43.6094 17.9159C43.2266 17.6268 42.625 17.2204 42.2812 17.0251C41.9375 16.8297 41.3359 16.5328 40.9531 16.3609C40.5703 16.1968 39.9297 15.9624 39.5469 15.853C39.1641 15.7436 38.5234 15.5873 38.1406 15.517C37.6406 15.4232 37.0234 15.3842 35.9922 15.3842C34.9609 15.3842 34.3438 15.4232 33.8438 15.517C33.4609 15.5873 32.8203 15.7436 32.4375 15.853C32.0547 15.9624 31.4141 16.1968 31.0312 16.3609C30.6484 16.5328 30.0469 16.8297 29.7031 17.0251C29.3594 17.2282 28.7578 17.6268 28.375 17.9159C27.9922 18.205 27.3203 18.8066 26.8906 19.252C26.4297 19.7365 25.8594 20.4319 25.5078 20.9633C25.1797 21.4555 24.75 22.1978 24.5625 22.6042C24.3672 23.0105 24.1172 23.6668 23.9922 24.0497C23.8672 24.4326 23.7734 24.7608 23.7656 24.7764C23.7656 24.7842 23.5469 24.7217 23.2734 24.6358C22.9453 24.5264 22.5781 24.4795 22.125 24.4795C21.5859 24.4795 21.4609 24.456 21.4609 24.3623C21.4609 24.2998 21.6016 23.8153 21.7734 23.284C21.9531 22.7604 22.2812 21.94 22.5078 21.4712C22.7344 21.0023 23.2109 20.1897 23.5547 19.674C23.8984 19.1583 24.4609 18.4238 24.8047 18.0331C25.1484 17.6424 25.6484 17.1345 25.9219 16.8923C26.1953 16.6578 26.6875 16.2515 27.0078 16.0093C27.3281 15.7592 27.8906 15.3764 28.2578 15.1576C28.625 14.9388 29.2734 14.595 29.7031 14.3918C30.1328 14.1887 30.8516 13.8996 31.3047 13.7511C31.7578 13.6026 32.5078 13.4073 32.9844 13.3135C33.4531 13.2276 34 13.1182 34.1953 13.0791C34.3906 13.04 35.1562 13.0088 35.8906 13.001H35.8984ZM19.6641 26.8236C22.3828 26.8236 22.5391 26.8315 22.7812 26.9799C22.9141 27.0659 23.1016 27.2534 23.1875 27.3862C23.3359 27.6363 23.3438 27.7847 23.3438 34.2468C23.3438 40.7088 23.3359 40.8573 23.1875 41.1073C23.1016 41.2402 22.9141 41.4277 22.7734 41.5137C22.5391 41.6621 22.3828 41.6699 19.6719 41.6699C16.8281 41.6777 16.8203 41.6777 16.5469 41.498C16.3984 41.3965 16.2109 41.1933 16.1406 41.0448C16.0078 40.787 16 40.3025 16 34.2468C16 28.1911 16.0078 27.7066 16.1406 27.4487C16.2109 27.3003 16.3906 27.0971 16.5391 27.0034C16.8047 26.8236 16.8281 26.8236 19.6641 26.8236ZM52.3281 26.8236C55.1719 26.8158 55.1797 26.8158 55.4531 26.9955C55.6016 27.0971 55.7891 27.3003 55.8594 27.4487C55.9922 27.7066 56 28.1911 56 34.2468C56 40.3025 55.9922 40.787 55.8594 41.0448C55.7891 41.1933 55.6016 41.3965 55.4531 41.498C55.1797 41.6777 55.1719 41.6777 52.3281 41.6699C49.6172 41.6699 49.4609 41.6621 49.2188 41.5137C49.0859 41.4277 48.8984 41.2402 48.8125 41.1073C48.6641 40.8573 48.6562 40.7088 48.6562 34.2468C48.6562 27.7847 48.6641 27.6363 48.8125 27.3862C48.8984 27.2534 49.0859 27.0659 49.2188 26.9799C49.4609 26.8315 49.6172 26.8236 52.3281 26.8236ZM48.2109 43.6546C48.3047 43.7172 48.5781 43.8187 48.8125 43.8891C49.0469 43.9594 49.4766 44.0141 49.7656 44.0141C50.1406 44.0141 50.2969 44.0453 50.2969 44.1079C50.2969 44.1625 50.125 44.5611 49.9062 44.9908C49.6953 45.4206 49.2969 46.0691 49.0156 46.4364C48.7422 46.8036 48.2188 47.3897 47.8438 47.7413C47.4766 48.1007 46.8828 48.5774 46.5234 48.8118C46.1719 49.0384 45.6641 49.3431 45.3906 49.476C45.125 49.6088 44.6016 49.8198 44.2188 49.9448C43.8438 50.0698 43.2734 50.2339 42.9531 50.3042C42.6016 50.3824 41.7812 50.4527 39.4766 50.523L39.2656 50.9606C39.1484 51.2028 38.9219 51.5544 38.75 51.7498C38.5859 51.9451 38.2578 52.2264 38.0234 52.3749C37.7891 52.5234 37.3828 52.7265 37.1094 52.8203C36.7578 52.9531 36.4531 53 35.9766 53C35.4766 53 35.2266 52.9609 34.8281 52.8047C34.5469 52.6953 34.1484 52.4921 33.9375 52.3515C33.7266 52.2108 33.4141 51.9451 33.2422 51.7498C33.0781 51.5544 32.8516 51.2341 32.75 51.0231C32.6484 50.8199 32.5078 50.4527 32.4453 50.2026C32.3828 49.9604 32.3281 49.5463 32.3281 49.2884C32.3281 49.0306 32.375 48.6399 32.4297 48.4289C32.4922 48.2101 32.6562 47.8116 32.8047 47.5381C32.9531 47.2568 33.2578 46.8661 33.5 46.6395C33.7344 46.4207 34.125 46.1473 34.3594 46.0301C34.5938 45.9128 34.9453 45.7878 35.1406 45.7409C35.3359 45.6941 35.7188 45.655 36 45.655C36.2812 45.655 36.6641 45.6941 36.8594 45.7409C37.0547 45.7878 37.4062 45.9128 37.6406 46.0301C37.875 46.1473 38.2656 46.4207 38.5 46.6395C38.7656 46.8896 39.0391 47.249 39.5156 48.1554H40.4531C40.9688 48.1554 41.6641 48.1164 41.9922 48.0773C42.3281 48.0304 42.9375 47.8898 43.3438 47.7647C43.75 47.6319 44.3672 47.3662 44.7109 47.1709C45.0547 46.9755 45.5781 46.6161 45.8828 46.3739C46.1797 46.1316 46.625 45.6862 46.875 45.3815C47.1172 45.0768 47.4844 44.5454 47.6797 44.1938C48.0234 43.5765 48.0469 43.5531 48.2109 43.6546ZM30.2969 26.7533C30.6641 26.7455 31.1641 26.8002 31.4062 26.8627C31.6562 26.9252 32.0781 27.0893 32.3438 27.2221C32.6562 27.3784 33.0469 27.6753 33.3906 28.027C33.75 28.3942 34.0312 28.7537 34.1875 29.0897C34.3281 29.371 34.4922 29.8476 34.5547 30.1445C34.6172 30.4493 34.6719 30.9493 34.6719 31.2619C34.6719 31.5745 34.625 31.9339 34.5625 32.0824C34.5 32.223 33.25 33.5279 31.6719 35.1063C30.1406 36.63 28.8906 37.9037 28.8906 37.9427C28.8906 37.974 30.0156 38.0052 31.3828 38.0209C33.7422 38.0365 33.8906 38.0443 34.0938 38.1928C34.2031 38.2787 34.3672 38.435 34.4531 38.5444C34.5312 38.6538 34.6172 38.8804 34.6406 39.0523C34.6719 39.2867 34.6328 39.4508 34.5 39.7087C34.3906 39.9274 34.2188 40.1072 34.0469 40.2009C33.7969 40.3338 33.5156 40.3416 30.3516 40.3416C27.5781 40.3416 26.8984 40.3181 26.7188 40.2322C26.6016 40.1697 26.4219 40.029 26.3125 39.9118C26.1484 39.7399 26.1094 39.6071 26.0859 39.1461C26.0703 38.771 26.1016 38.4272 26.1953 38.1146C26.2656 37.8568 26.4375 37.4348 26.5703 37.177C26.7656 36.7941 27.3359 36.1768 32.3672 31.1213L32.2734 30.668C32.2188 30.4258 32.0703 30.082 31.9531 29.9101C31.8359 29.7382 31.5625 29.496 31.3516 29.3631C31.0547 29.1756 30.8594 29.1209 30.4609 29.1053C30.1172 29.0818 29.8359 29.1209 29.6328 29.199C29.4609 29.2694 29.1797 29.4569 29.0156 29.6132C28.8438 29.7773 28.6484 30.0508 28.5781 30.2227C28.5 30.3946 28.4141 30.7306 28.3906 30.965C28.3672 31.215 28.2734 31.5041 28.1719 31.6604C28.0703 31.8089 27.8672 31.9964 27.7188 32.0745C27.5156 32.1839 27.3594 32.2152 27.1094 32.1839C26.9297 32.1605 26.6719 32.0667 26.5469 31.9808C26.4141 31.8948 26.2578 31.7229 26.1953 31.5901C26.125 31.4572 26.0781 31.1447 26.0781 30.8712C26.0781 30.5977 26.1328 30.168 26.2031 29.9101C26.2656 29.6523 26.4375 29.2303 26.5703 28.9724C26.7109 28.7146 27.0469 28.277 27.3281 27.9879C27.6484 27.6675 28.0234 27.3862 28.3438 27.23C28.625 27.0893 29.0234 26.9252 29.2422 26.8705C29.4531 26.808 29.9297 26.7533 30.2969 26.7533ZM44.2578 26.7611C44.6094 26.7846 44.7031 26.8236 45.2578 27.3706L45.2969 34.2077L45.5938 34.2624C45.75 34.2937 45.9766 34.3874 46.0938 34.4734C46.2188 34.5672 46.3672 34.7469 46.4297 34.8719C46.4922 34.9969 46.5469 35.247 46.5469 35.4189C46.5469 35.5908 46.4922 35.8408 46.4297 35.9658C46.3672 36.0909 46.2188 36.2706 46.0938 36.3643C45.9766 36.4503 45.75 36.5441 45.2969 36.63V38.0756C45.2969 39.3883 45.2812 39.5446 45.1406 39.779C45.0547 39.9118 44.8672 40.0994 44.7266 40.1853C44.5938 40.2713 44.3359 40.3416 44.1641 40.3416C43.9688 40.3416 43.7578 40.2791 43.5859 40.1697C43.4375 40.0681 43.2422 39.8884 43.1562 39.7712C43.0078 39.568 42.9922 39.4352 42.9531 36.5909H40.2734C37.6562 36.5831 37.5938 36.5831 37.3047 36.4112C37.125 36.3096 36.9453 36.1143 36.8594 35.9268C36.7734 35.7549 36.7031 35.4892 36.7031 35.3407C36.7031 35.1923 36.7578 34.825 36.8281 34.5203C36.8906 34.2155 37.0703 33.7311 37.2266 33.4263C37.4766 32.9497 37.8906 32.5043 40.4453 29.9257C42.0625 28.3083 43.4844 26.9252 43.6172 26.8549C43.7578 26.7846 44.0078 26.7455 44.2578 26.7611ZM39.4766 34.2468H42.9531C42.9531 31.5823 42.9453 30.8087 42.9297 30.8087C42.9219 30.8087 42.1406 31.5823 41.1953 32.5277L39.4766 34.2468Z" fill="white"/>
</svg>
