<svg width="72" height="67" viewBox="0 0 72 67" fill="none" xmlns="http://www.w3.org/2000/svg">
<rect width="72" height="67" rx="10" fill="#E85B25"/>
<path fill-rule="evenodd" clip-rule="evenodd" d="M32.1292 14H45.5388L45.7949 14.1707C45.9372 14.2598 46.115 14.4602 46.1862 14.616C46.2644 14.7645 46.3213 14.9871 46.3213 15.1133C46.3213 15.232 46.2431 15.4918 46.1506 15.6922C46.0581 15.8852 44.486 18.8836 42.6577 22.3496C40.8294 25.823 39.3213 28.7027 39.3071 28.7547C39.2857 28.8215 40.2176 28.8438 43.7959 28.8438C47.9504 28.8438 48.3346 28.8512 48.5693 28.9773C48.7187 29.0441 48.8966 29.2 48.9748 29.3262C49.0602 29.4523 49.1384 29.6824 49.1527 29.8457C49.174 30.0387 49.1384 30.2316 49.0602 30.4023C48.9891 30.5434 45.7594 35.323 41.8894 41.0156C38.0195 46.7082 34.7898 51.4508 34.7115 51.5547C34.6332 51.6586 34.4839 51.7996 34.3843 51.8664C34.2776 51.9406 34.057 52 33.8934 52C33.6942 52 33.4879 51.9406 33.3243 51.8293C33.1749 51.7328 32.9971 51.5324 32.933 51.384C32.8619 51.2355 32.805 51.0203 32.8121 50.9016C32.8121 50.7902 33.3954 47.6285 35.4087 37.0449L30.2084 37.0078C25.4421 36.9707 24.9939 36.9633 24.7805 36.8371C24.6525 36.7703 24.4889 36.5773 24.4106 36.4141C24.3324 36.2508 24.2683 36.0281 24.2683 35.9094C24.2683 35.798 25.8832 30.9813 27.8608 25.207C29.8385 19.4328 31.496 14.6234 31.5387 14.527C31.5885 14.4305 31.745 14.2746 31.8802 14.1781L32.1292 14ZM50.1202 14C50.3976 14 50.5399 14.0445 50.7106 14.1855C50.8387 14.2895 50.9952 14.4676 51.0521 14.5938C51.109 14.7125 51.1588 14.95 51.1588 15.1133C51.1588 15.2766 51.0805 15.566 50.9881 15.759C50.8956 15.952 49.9779 17.6961 48.9606 19.6406C47.9362 21.5777 47.0256 23.2402 46.9403 23.3367C46.8549 23.4258 46.6699 23.5371 46.5348 23.5816C46.3996 23.6262 46.1648 23.641 46.0155 23.6188C45.8732 23.5891 45.6669 23.4926 45.553 23.3961C45.4463 23.2996 45.3183 23.1141 45.2614 22.973C45.1974 22.8172 45.176 22.5945 45.1974 22.3867C45.2258 22.127 45.7096 21.1621 47.239 18.2676C48.7187 15.4547 49.3021 14.4156 49.5013 14.2375C49.7218 14.0297 49.8143 14 50.1202 14V14ZM25.7053 20.6945C26.0183 20.7094 26.1464 20.7539 26.2958 20.9023C26.4025 20.9988 26.5305 21.177 26.5875 21.2883C26.6444 21.3996 26.687 21.6074 26.687 21.7559C26.687 21.9043 25.7267 24.8211 24.3395 28.8586C22.4543 34.373 21.9563 35.7461 21.7998 35.9094C21.686 36.0207 21.4726 36.1395 21.3161 36.1766C21.1453 36.2211 20.9319 36.2211 20.7825 36.184C20.6474 36.1469 20.4553 36.043 20.3628 35.9465C20.2703 35.8574 20.1494 35.6719 20.0996 35.5383C20.0427 35.4047 20 35.2117 20 35.1152C20 35.0113 21.0457 31.8793 22.3191 28.1535C23.5925 24.4277 24.6809 21.2883 24.7378 21.177C24.7948 21.0656 24.9441 20.9023 25.0651 20.8207C25.25 20.702 25.3923 20.6723 25.7053 20.6945ZM50.924 32.332C51.0165 32.332 51.1944 32.3766 51.3153 32.4285C51.4433 32.4805 51.6354 32.6363 51.7421 32.7625C51.8559 32.8887 51.9627 33.1039 51.984 33.2375C52.0053 33.3711 52.0053 33.5789 51.984 33.7051C51.9555 33.8238 51.3224 34.8258 50.5683 35.9242C49.7004 37.2008 49.11 37.9875 48.9535 38.0988C48.797 38.2102 48.5978 38.2695 48.4199 38.2695C48.2634 38.2695 48.0216 38.2027 47.8864 38.1285C47.7228 38.0395 47.5805 37.8687 47.4667 37.6238C47.3173 37.3121 47.3031 37.223 47.36 36.9707C47.4098 36.7777 47.8864 36.0133 48.7045 34.8184C49.4017 33.7941 50.0419 32.859 50.1202 32.7402C50.2055 32.6215 50.3834 32.4805 50.5185 32.4285C50.6537 32.3766 50.8387 32.332 50.924 32.332ZM44.2939 42.218C44.4504 42.2328 44.6852 42.3293 44.8203 42.4258C44.9555 42.5297 45.112 42.7152 45.1618 42.8488C45.2116 42.9824 45.2543 43.1902 45.2543 43.3164C45.2543 43.4352 45.2258 43.6133 45.1902 43.7023C45.1618 43.7988 43.988 45.5727 42.5937 47.6582C41.1994 49.7363 39.9189 51.5695 39.7552 51.7254C39.492 51.9703 39.4138 52 39.1008 52C38.8375 51.9926 38.6882 51.948 38.5103 51.807C38.3894 51.7105 38.2329 51.525 38.176 51.4062C38.119 51.2801 38.0693 51.0277 38.0693 50.8496C38.0693 50.5602 38.1262 50.4266 38.4747 49.8922C38.7024 49.5582 39.9117 47.7547 41.1638 45.8844C43.113 42.9824 43.4829 42.4777 43.7248 42.3441C43.9145 42.2452 44.1042 42.2031 44.2939 42.218ZM31.5031 39.2344C31.6312 39.2344 31.8233 39.2789 31.93 39.3309C32.0438 39.3902 32.2145 39.5387 32.3212 39.6648C32.4351 39.7984 32.5347 40.0063 32.556 40.1398C32.5844 40.2957 32.2928 41.9508 31.7735 44.6523C31.1901 47.6879 30.9198 48.9719 30.8202 49.1055C30.7491 49.202 30.5997 49.3578 30.5001 49.4395C30.3649 49.5434 30.1942 49.5879 29.9381 49.5879C29.6535 49.5879 29.5113 49.5434 29.3263 49.4023C29.1911 49.2984 29.0346 49.1055 28.9848 48.9719C28.935 48.8383 28.8923 48.6379 28.8923 48.5266C28.8923 48.4152 29.2552 46.4188 29.7033 44.0957C30.2724 41.1641 30.5641 39.8059 30.6495 39.6871C30.7206 39.5906 30.8913 39.4496 31.0265 39.368C31.1617 39.2937 31.3822 39.2344 31.5031 39.2344Z" fill="white"/>
</svg>
