<svg width="72" height="67" viewBox="0 0 72 67" fill="none" xmlns="http://www.w3.org/2000/svg">
<rect width="72" height="67" rx="10" fill="#E85B25"/>
<path fill-rule="evenodd" clip-rule="evenodd" d="M19.4766 14C19.6953 14 20.125 14.0864 20.4766 14.1963C20.8047 14.3062 21.2188 14.4789 21.3906 14.5888C21.5625 14.6988 21.8594 14.95 22.0547 15.162C22.25 15.3661 22.5156 15.7351 22.875 16.4339H25.6328C28.375 16.426 28.3828 16.4339 28.6562 16.6066C28.8047 16.7087 28.9922 16.9128 29.0625 17.062C29.1797 17.2975 29.2031 17.5723 29.2031 18.9698C29.2031 19.8649 29.2188 20.595 29.2422 20.595C29.2656 20.595 29.6953 20.3831 30.2031 20.1318C30.7031 19.8727 31.4844 19.4409 31.9375 19.1661C32.3906 18.8992 33.0547 18.4595 33.4141 18.2004C33.7734 17.9413 34.3906 17.4231 34.7812 17.0541C35.1953 16.6616 35.5938 16.3554 35.7266 16.324C35.8594 16.2926 36.0859 16.2926 36.2344 16.324C36.4297 16.3632 36.7188 16.5752 37.2188 17.0541C37.6094 17.4231 38.2266 17.9413 38.5859 18.2004C38.9453 18.4595 39.6094 18.8992 40.0625 19.1661C40.5156 19.4409 41.2969 19.8727 41.8047 20.1318C42.3047 20.3831 42.7344 20.595 42.7578 20.595C42.7812 20.595 42.7969 19.8649 42.7969 18.962C42.7969 17.5723 42.8203 17.2975 42.9375 17.062C43.0078 16.9128 43.1953 16.7087 43.3438 16.6066C43.6172 16.4339 43.625 16.426 49.125 16.4339L49.3828 15.955C49.5156 15.688 49.7891 15.3112 49.9844 15.1149C50.1797 14.9186 50.4688 14.6752 50.6328 14.581C50.7891 14.4789 51.1953 14.3062 51.5312 14.1963C51.8594 14.0864 52.2891 14 52.4844 14C52.6797 14 53.1094 14.0864 53.4453 14.1963C53.7734 14.3062 54.1875 14.4789 54.3594 14.5888C54.5312 14.6988 54.8203 14.9343 54.9922 15.1227C55.1719 15.3033 55.3984 15.5938 55.5 15.7665C55.6016 15.9393 55.75 16.2926 55.8438 16.5517C55.9375 16.8343 56 17.2269 56 17.5331C56 17.8236 55.9375 18.2632 55.8516 18.5537C55.7656 18.8364 55.5938 19.2211 55.4688 19.4174C55.3516 19.6136 55.1172 19.9041 54.9609 20.069C54.8047 20.226 54.5312 20.4459 54.3594 20.5558C54.1875 20.6657 53.8359 20.8227 53.5781 20.9091C53.2656 21.0138 52.901 21.0661 52.4844 21.0661C52.0677 21.0661 51.7031 21.0138 51.3906 20.9091C51.1328 20.8227 50.7812 20.6657 50.6094 20.5558C50.4375 20.4459 50.1406 20.1946 49.9453 19.9826C49.75 19.7785 49.4922 19.4252 49.1641 18.7893H45.1406V21.655L46.5234 22.1731C47.2891 22.4636 48.3906 22.8483 48.9688 23.0368C49.75 23.288 50.0938 23.4372 50.2812 23.6099C50.4219 23.7434 50.5781 23.9789 50.6172 24.1281C50.6562 24.2773 50.6875 25.1252 50.6875 26.0124C50.6875 26.8996 50.6328 28.1008 50.5703 28.6818C50.5156 29.2628 50.4297 29.8909 50.3359 30.4091H52.7031C54.7891 30.4091 55.0938 30.4248 55.3438 30.5504C55.5078 30.6211 55.7031 30.786 55.7891 30.9194C55.875 31.0529 55.9688 31.2806 55.9844 31.4298C56.0078 31.6103 55.9688 31.8223 55.8594 32.0579C55.7656 32.262 55.5859 32.474 55.4375 32.5682C55.1953 32.7174 55 32.7252 49.8906 32.8037L49.6328 33.7459C49.4922 34.2641 49.2812 34.9628 49.1719 35.3004C49.0625 35.6302 48.9688 35.9207 48.9688 35.9442C48.9688 35.9678 49.7891 35.9913 50.7891 35.9992C52.5234 36.0227 52.6094 36.0306 52.8594 36.1955C53.0078 36.3054 53.1641 36.5095 53.2344 36.7058C53.3125 36.9178 53.3438 37.1533 53.3125 37.3417C53.2891 37.4988 53.1719 37.7422 53.0547 37.8835C52.9297 38.0169 52.7188 38.174 52.5859 38.2368C52.3906 38.3153 51.7891 38.3388 47.9922 38.331L47.7734 38.8256C47.6484 39.1004 47.3359 39.7285 47.0625 40.2231C46.7969 40.7178 46.3516 41.4872 46.0703 41.9347C45.7969 42.3822 45.2812 43.1517 44.2812 44.5413H49.1641L49.3516 44.1331C49.4609 43.8975 49.7422 43.5128 50.0156 43.238C50.2812 42.9711 50.6797 42.6727 50.9219 42.5628C51.1562 42.445 51.5078 42.3194 51.7031 42.2723C51.8984 42.2252 52.25 42.186 52.4844 42.186C52.7188 42.186 53.0938 42.2331 53.3047 42.288C53.5234 42.343 53.8516 42.4686 54.0469 42.555C54.2422 42.6492 54.5781 42.8769 54.7891 43.0731C55.0078 43.2616 55.2891 43.5913 55.4297 43.8033C55.5625 44.0153 55.75 44.4157 55.8359 44.6983C55.9297 44.9888 56 45.4128 56 45.6798C56 45.9388 55.9531 46.3236 55.8906 46.5434C55.8359 46.7554 55.7031 47.1087 55.5938 47.3285C55.4844 47.5405 55.2344 47.8938 55.0469 48.1136C54.8359 48.3492 54.4766 48.624 54.1562 48.7967C53.8359 48.9694 53.3984 49.1264 53.0703 49.1814C52.6406 49.2599 52.4062 49.2678 51.9531 49.1893C51.6484 49.1343 51.1875 48.993 50.9453 48.8674C50.6953 48.7417 50.3203 48.4826 50.1016 48.2942C49.8672 48.0822 49.6016 47.7368 49.1641 46.8967L42.2891 46.9045L41.2344 47.9409C40.6562 48.514 39.7734 49.3149 39.2812 49.731C38.7891 50.1393 38.1016 50.6967 37.7578 50.9558C37.4141 51.2149 36.9297 51.5525 36.6875 51.7174C36.4219 51.8822 36.1328 52 36 52C35.8672 52 35.5781 51.8822 35.3203 51.7174C35.0703 51.5603 34.5 51.1442 34.0469 50.7988C33.5938 50.4533 32.9062 49.8959 32.5234 49.574C32.1406 49.2442 31.3438 48.5141 29.7109 46.9045L22.8359 46.8967L22.5859 47.3913C22.4531 47.6583 22.1719 48.043 21.9609 48.2393C21.7578 48.4355 21.3672 48.7103 21.1016 48.8438C20.8203 48.9851 20.3594 49.1343 20.0469 49.1893C19.6016 49.2599 19.3594 49.2599 18.9531 49.1893C18.6562 49.1343 18.2188 48.993 17.9766 48.8674C17.7266 48.7417 17.3516 48.4826 17.1328 48.2942C16.9219 48.0979 16.6328 47.7368 16.4922 47.4777C16.3516 47.2264 16.1875 46.8339 16.125 46.6219C16.0547 46.4021 16 46.0174 16 45.7583C16 45.4992 16.0469 45.1066 16.1016 44.8946C16.1562 44.6748 16.2891 44.3215 16.3906 44.1095C16.4922 43.8897 16.7891 43.505 17.0469 43.238C17.3203 42.9711 17.7109 42.6727 17.9531 42.5628C18.1875 42.445 18.5391 42.3194 18.7344 42.2723C18.9297 42.2252 19.2812 42.186 19.5156 42.186C19.75 42.186 20.1016 42.2252 20.2969 42.2723C20.4922 42.3194 20.8438 42.445 21.0781 42.5628C21.3203 42.6727 21.7188 42.9711 21.9844 43.238C22.2578 43.5128 22.5391 43.8975 22.8359 44.5413H27.7188L27.0781 43.6463C26.7188 43.1517 26.2031 42.3822 25.9297 41.9347C25.6484 41.4872 25.2031 40.7178 24.9375 40.2231C24.6641 39.7285 24.3516 39.1004 24.0078 38.331L21.8359 38.3388C20.2109 38.3388 19.6094 38.3153 19.4219 38.2368C19.2812 38.174 19.0703 38.0169 18.9531 37.8835C18.8281 37.7422 18.7109 37.4988 18.6875 37.3339C18.6562 37.1533 18.6875 36.9178 18.7656 36.7058C18.8359 36.5095 18.9922 36.3054 19.1484 36.1955C19.3906 36.0306 19.4766 36.0227 21.2109 35.9992C22.2109 35.9913 23.0312 35.9678 23.0312 35.9442C23.0312 35.9207 22.9375 35.6302 22.8281 35.2926C22.7188 34.9628 22.5078 34.2641 22.1094 32.8037L19.4688 32.7645C16.9922 32.7252 16.8047 32.7174 16.5703 32.5682C16.4297 32.4818 16.2422 32.2698 16.1484 32.0971C16.0234 31.8694 15.9844 31.6967 16.0156 31.469C16.0312 31.2963 16.1172 31.0529 16.2109 30.9194C16.2969 30.786 16.4922 30.6211 16.6562 30.5426C16.9062 30.4248 17.2109 30.4091 19.2812 30.4091C21.1094 30.4091 21.625 30.3855 21.625 30.307C21.6172 30.2599 21.5703 29.8752 21.5 29.4669C21.4297 29.0194 21.3672 27.8653 21.3438 26.6012C21.3125 25.2351 21.3203 24.3715 21.375 24.1674C21.4219 23.9868 21.5625 23.7512 21.7188 23.6178C21.9062 23.4372 22.2812 23.2802 23.1484 22.9975C23.7891 22.7934 24.8906 22.4087 26.8594 21.6942V18.7893H22.8359L22.625 19.2054C22.5078 19.4252 22.25 19.7785 22.0547 19.9826C21.8594 20.1946 21.5625 20.4459 21.3906 20.5558C21.2188 20.6657 20.8672 20.8227 20.6094 20.9091C20.2969 21.0138 19.9323 21.0661 19.5156 21.0661C19.099 21.0661 18.7344 21.0138 18.4219 20.9091C18.1641 20.8227 17.8203 20.6657 17.6562 20.5636C17.5 20.4616 17.2109 20.226 17.0234 20.0376C16.8359 19.8492 16.6016 19.5508 16.5 19.3781C16.3984 19.2054 16.25 18.8521 16.1562 18.593C16.0625 18.3103 16 17.9178 16 17.6116C16 17.3211 16.0625 16.8814 16.1484 16.5909C16.2344 16.3083 16.4062 15.9236 16.5312 15.7273C16.6484 15.531 16.8906 15.2405 17.0625 15.0678C17.2266 14.9029 17.5 14.6831 17.6562 14.581C17.8203 14.4789 18.2109 14.3062 18.5156 14.2041C18.8281 14.0942 19.2578 14.0079 19.4766 14V14ZM33.7344 24.7719C33.2266 25.0231 32.9375 25.2351 32.4844 25.6905C32.1562 26.0281 31.7891 26.4913 31.6484 26.7583C31.5078 27.0174 31.3203 27.4413 31.2344 27.7004C31.1172 28.0223 31.0469 28.4541 31.0156 29.0901L30.9609 30.0165C30.6094 30.1657 30.3672 30.3541 30.1953 30.5269C30.0234 30.6996 29.8047 30.9979 29.7188 31.1942C29.5625 31.5397 29.5547 31.6496 29.5547 35.3946V39.2417C29.875 39.9091 30.125 40.2388 30.3047 40.4037C30.5 40.5686 30.8203 40.7492 31.0391 40.8198C31.3594 40.9141 32.2188 40.9298 36 40.9298C39.7812 40.9298 40.6406 40.9141 40.9609 40.8198C41.1797 40.7492 41.5 40.5686 41.6953 40.4037C41.875 40.2388 42.125 39.9091 42.2422 39.6736L42.4453 39.2417C42.4844 33.581 42.4609 32.0579 42.4141 31.7438C42.3516 31.3905 42.25 31.1236 42.0781 30.8645C41.9375 30.6603 41.6406 30.3777 41.4141 30.2364L41.0078 29.9773C41 28.9017 40.9375 28.3992 40.8438 28.0145C40.75 27.669 40.5469 27.143 40.3906 26.8368C40.2109 26.4835 39.8906 26.0752 39.5156 25.6905C39.0625 25.2351 38.7734 25.0231 38.2656 24.7719C37.8984 24.5913 37.3594 24.3872 37.0547 24.3244C36.75 24.2616 36.2656 24.2145 35.9609 24.2145C35.6562 24.2145 35.1875 24.2694 34.9062 24.3322C34.625 24.3872 34.1016 24.5835 33.7344 24.7719ZM36.1172 26.5855C36.4922 26.6012 36.8047 26.6719 37.0938 26.8054C37.3281 26.9153 37.6797 27.1587 37.875 27.3471C38.0625 27.5434 38.3047 27.8967 38.4141 28.1322C38.5703 28.462 38.6172 28.7132 38.6562 29.8595H33.3438L33.3672 29.2157C33.3828 28.7211 33.4297 28.462 33.5859 28.1322C33.6953 27.8967 33.9375 27.5434 34.125 27.355C34.3203 27.1665 34.5781 26.9624 34.7109 26.8917C34.8359 26.8289 35.0859 26.7269 35.2578 26.6641C35.4375 26.6091 35.8047 26.5698 36.1172 26.5855ZM40.1016 32.2541L40.1406 38.5744H31.8594L31.8438 35.4496C31.8359 33.7302 31.8594 32.2934 31.8984 32.2698C31.9375 32.2384 33.7969 32.2227 40.1016 32.2541ZM35.1875 34.162C35.1094 34.2326 34.9922 34.4132 34.9375 34.5545C34.875 34.6959 34.8281 35.0806 34.8281 35.4339C34.8281 35.8971 34.8672 36.1405 34.9766 36.3603C35.0625 36.5252 35.25 36.7215 35.4219 36.8236C35.5938 36.9178 35.8438 36.9963 35.9766 37.0041C36.1172 37.0041 36.375 36.9335 36.5469 36.8471C36.7552 36.7424 36.9115 36.5854 37.0156 36.376C37.1328 36.1405 37.1719 35.905 37.1719 35.4339C37.1719 35.0806 37.125 34.6959 37.0625 34.5545C37.0078 34.4132 36.875 34.2169 36.7734 34.1306C36.6719 34.0364 36.5 33.9343 36.3906 33.9029C36.2812 33.8793 36.1406 33.8401 36.0781 33.8244C36.0156 33.8087 35.8203 33.8479 35.6484 33.9107C35.4766 33.9736 35.2734 34.0835 35.1875 34.162Z" fill="white"/>
</svg>
