<svg width="72" height="67" viewBox="0 0 72 67" fill="none" xmlns="http://www.w3.org/2000/svg">
<rect width="72" height="67" rx="10" fill="#E85B25"/>
<path d="M34.8346 11.7055C34.9231 11.525 35.1267 11.293 35.2949 11.1898C35.4719 11.0781 35.7463 11.0007 35.9765 11.0007C36.2155 10.9921 36.4634 11.0609 36.667 11.1812C36.844 11.293 37.0653 11.525 37.1538 11.6969C37.3132 12.015 37.322 12.737 37.322 32.9961C37.322 53.2552 37.3132 53.9772 37.1538 54.2866C37.0653 54.4671 36.844 54.6992 36.667 54.8023C36.4811 54.9226 36.2067 55 35.9942 55C35.7818 55 35.5073 54.9226 35.3214 54.8109C35.1444 54.6992 34.9231 54.4671 34.8346 54.2952C34.6752 53.9772 34.6664 53.2552 34.6664 32.9961C34.6664 12.7542 34.6752 12.015 34.8346 11.7055Z" fill="white"/>
<path d="M16.4045 26.6184C16.5372 26.4808 16.7763 26.3433 16.9179 26.3003C17.0595 26.2574 17.2631 26.2316 17.3605 26.2488C17.4579 26.2745 17.6084 26.2917 17.688 26.2917C17.7765 26.2917 18.0333 26.455 18.2546 26.6527C18.4847 26.859 18.8654 27.2716 19.1044 27.581C19.3522 27.8905 19.7594 28.5609 20.0161 29.0852C20.2817 29.6095 20.5827 30.3831 20.6977 30.8043C20.8659 31.4575 20.9013 31.7927 20.9013 32.9961C20.9013 34.1994 20.8659 34.5346 20.6977 35.1879C20.5827 35.609 20.2817 36.3826 20.0161 36.9069C19.7594 37.4312 19.3434 38.1017 19.1044 38.4111C18.8654 38.7205 18.5113 39.1159 18.3254 39.2964C18.1129 39.4941 17.8474 39.6488 17.6261 39.6918C17.4225 39.7348 17.1392 39.7348 16.9622 39.6918C16.794 39.6488 16.555 39.5285 16.4487 39.4253C16.3337 39.3136 16.1743 39.1073 16.1035 38.9698C16.0061 38.7979 15.9796 38.583 16.015 38.3251C16.0415 38.1103 16.1389 37.8524 16.2274 37.7579L16.2275 37.7578C16.3161 37.6545 16.5816 37.3452 16.8117 37.0702C17.0418 36.7866 17.4136 36.2107 17.6261 35.7895C17.8385 35.3684 18.0687 34.7323 18.1483 34.3885C18.228 34.0533 18.29 33.4172 18.29 32.9961C18.29 32.5749 18.228 31.9388 18.1483 31.595C18.0687 31.2598 17.8739 30.7011 17.7234 30.3745C17.5641 30.0393 17.3074 29.5751 17.1392 29.3431C16.971 29.1024 16.6612 28.7328 16.4576 28.5007C16.2097 28.2429 16.0592 27.985 16.0238 27.7701C15.9884 27.5982 16.0061 27.3146 16.0592 27.1513C16.1123 26.988 16.2717 26.7473 16.4045 26.6184Z" fill="white"/>
<path d="M53.4771 26.9106C53.7781 26.6012 54.1234 26.3347 54.2738 26.2917C54.4155 26.2574 54.681 26.2402 54.8492 26.266C55.0174 26.2917 55.2564 26.3777 55.3804 26.455C55.5043 26.541 55.699 26.7387 55.8053 26.902C55.9823 27.1427 56.0089 27.2716 55.9734 27.624C55.9469 27.8561 55.8495 28.1397 55.761 28.2343C55.6725 28.3374 55.4158 28.6468 55.1768 28.9219C54.9466 29.2055 54.6014 29.7213 54.4155 30.0737C54.2207 30.4261 53.9817 31.0449 53.8843 31.4489C53.7604 31.9217 53.6984 32.4632 53.6984 32.9961C53.6984 33.529 53.7604 34.0705 53.8843 34.5432C53.9817 34.9472 54.2207 35.5661 54.4155 35.9185C54.6014 36.2709 54.9466 36.7866 55.1768 37.0616C55.4158 37.3367 55.6902 37.6891 55.8053 37.8352C55.9203 37.9899 56 38.2306 56 38.3853C56 38.54 55.9469 38.7979 55.8761 38.944C55.8141 39.0987 55.6636 39.3136 55.5485 39.4253C55.4335 39.5285 55.1768 39.6488 54.982 39.6918C54.7784 39.7348 54.4951 39.7348 54.3181 39.6918C54.1499 39.6488 53.8578 39.4683 53.663 39.2964C53.4771 39.1159 53.1231 38.7205 52.8841 38.4111C52.645 38.1017 52.229 37.4312 51.9723 36.9069C51.7067 36.3826 51.4058 35.609 51.2907 35.1879C51.1225 34.5346 51.0871 34.1994 51.0871 32.9961C51.0871 31.7841 51.1136 31.4661 51.2907 30.8043C51.4058 30.3831 51.6713 29.6783 51.8749 29.2571C52.0785 28.8359 52.406 28.2515 52.6008 27.9678C52.7867 27.6842 53.185 27.2114 53.4771 26.9106Z" fill="white"/>
<path d="M23.6898 19.6046C23.7871 19.4585 23.9996 19.2522 24.1501 19.1576H24.1589C24.3271 19.0545 24.6015 18.9857 24.8405 18.9857C25.0707 18.9857 25.354 19.0545 25.5044 19.1405C25.6549 19.2264 26.071 19.6304 26.4339 20.0258C26.8057 20.4212 27.2483 20.9197 27.4165 21.1346C27.5935 21.3494 28.0273 21.9425 28.3814 22.4668C28.7355 22.9911 29.2755 23.9108 29.5764 24.5297C29.8862 25.14 30.2846 26.0511 30.4616 26.5496C30.6387 27.0481 30.8777 27.8217 30.9928 28.2687C31.1078 28.7156 31.276 29.472 31.3646 29.9447C31.4796 30.6152 31.515 31.2856 31.515 32.9961C31.515 34.7065 31.4796 35.377 31.3646 36.0474C31.276 36.5201 31.1078 37.2765 30.9928 37.7235C30.8777 38.1704 30.6387 38.944 30.4616 39.4425C30.2846 39.9411 29.8862 40.8522 29.5764 41.4624C29.2755 42.0727 28.7355 43.001 28.3814 43.5253C28.0273 44.0496 27.4962 44.763 27.1952 45.1154C26.8942 45.4678 26.4339 45.9835 26.1684 46.2586C25.9028 46.5422 25.5753 46.8259 25.4425 46.886C25.3008 46.9548 25.0264 47.0064 24.8228 47.0064C24.6015 47.0064 24.3271 46.9376 24.1589 46.8345C23.9996 46.7399 23.7871 46.5336 23.6898 46.3789C23.5924 46.2242 23.5127 45.9492 23.5127 45.7601C23.5127 45.571 23.5924 45.2959 23.6809 45.1584C23.7694 45.0209 24.1147 44.6083 24.451 44.2559C24.7786 43.9035 25.292 43.3018 25.5753 42.9236C25.8674 42.5454 26.31 41.8836 26.5667 41.4624C26.8234 41.0413 27.1864 40.3794 27.3634 40.0012C27.5404 39.623 27.8414 38.8666 28.0273 38.3251C28.222 37.7836 28.4522 36.9499 28.5496 36.4772C28.6469 36.0044 28.7709 35.291 28.824 34.887C28.8683 34.483 28.9125 33.6235 28.9125 32.9703C28.9125 32.3256 28.8505 31.3544 28.7797 30.8215C28.7089 30.2971 28.5496 29.472 28.4345 28.9993C28.3106 28.5265 28.0804 27.7701 27.9122 27.3232C27.744 26.8762 27.4785 26.2316 27.3191 25.905C27.1686 25.5783 26.8323 24.9509 26.5667 24.5297C26.31 24.1085 25.8674 23.4467 25.5753 23.0685C25.292 22.6903 24.7786 22.0886 24.451 21.7362C24.1147 21.3838 23.7694 20.9713 23.6809 20.8337C23.5924 20.6876 23.5127 20.4212 23.5127 20.2321C23.5127 20.043 23.5924 19.7679 23.6898 19.6046Z" fill="white"/>
<path d="M45.5456 20.0258C45.9086 19.6304 46.3335 19.2264 46.4751 19.1405C46.6699 19.0201 46.8646 18.9857 47.2453 19.0029C47.6347 19.0201 47.7941 19.0803 47.98 19.2436C48.1128 19.3639 48.2721 19.5616 48.3429 19.6906C48.4137 19.8281 48.4668 20.0773 48.4668 20.2493C48.4668 20.4298 48.3872 20.6876 48.2987 20.8337C48.2101 20.9713 47.8649 21.3838 47.5285 21.7362C47.201 22.0886 46.6876 22.6903 46.4043 23.0685C46.1122 23.4467 45.6607 24.1257 45.3863 24.5727C45.1119 25.0196 44.7755 25.6385 44.6339 25.9479C44.4922 26.2574 44.2355 26.8762 44.0673 27.3232C43.8992 27.7701 43.669 28.5265 43.5451 28.9993C43.43 29.472 43.2707 30.2971 43.1998 30.8215C43.129 31.3544 43.0671 32.3342 43.0671 32.9961C43.0671 33.6579 43.129 34.6378 43.1998 35.1621C43.2707 35.695 43.43 36.5201 43.5451 36.9929C43.669 37.4656 43.8992 38.222 44.0673 38.669C44.2355 39.1159 44.4922 39.7348 44.6339 40.0442C44.7755 40.3536 45.1119 40.9725 45.3863 41.4194C45.6607 41.8664 46.1122 42.5454 46.4043 42.9236C46.6876 43.3018 47.201 43.9035 47.5285 44.2559C47.8649 44.6083 48.2101 45.0209 48.2987 45.1584C48.3872 45.2959 48.4668 45.5624 48.4668 45.7343C48.4668 45.9148 48.4137 46.164 48.3429 46.293C48.2721 46.4305 48.1128 46.6282 47.98 46.7485C47.8029 46.9032 47.617 46.972 47.2895 46.9978C46.9974 47.015 46.7318 46.9806 46.5636 46.9032C46.422 46.8259 45.9971 46.4477 45.6165 46.0523C45.2447 45.6569 44.7844 45.1326 44.5985 44.9005C44.4037 44.6599 43.9523 44.0496 43.5982 43.5253C43.2441 43.001 42.7041 42.0727 42.4031 41.4624C42.0933 40.8522 41.695 39.9411 41.5179 39.4425C41.3409 38.944 41.1019 38.1704 40.9868 37.7235C40.8717 37.2765 40.7124 36.5373 40.6327 36.0904C40.5531 35.6434 40.4645 34.5346 40.438 33.6407C40.4026 32.6007 40.4291 31.638 40.4999 30.9762C40.5619 30.4089 40.7035 29.4978 40.8186 28.9563C40.9425 28.4148 41.217 27.4435 41.4383 26.8075C41.6507 26.1714 42.0845 25.1486 42.3943 24.5297C42.7041 23.9108 43.2441 22.9911 43.5982 22.4668C43.9523 21.9425 44.386 21.3494 44.5631 21.1346C44.7313 20.9197 45.1739 20.4212 45.5456 20.0258Z" fill="white"/>
<path d="M20.0338 23.0255C20.1224 22.9138 20.326 22.7677 20.4941 22.7075C20.6623 22.6473 20.9102 22.6044 21.0518 22.5958C21.1846 22.5958 21.4236 22.6473 21.583 22.7075C21.7334 22.7763 22.1052 23.0771 22.3885 23.3779C22.6806 23.6788 23.1409 24.2203 23.4153 24.5727C23.6809 24.9251 24.1147 25.5697 24.3625 25.9909C24.6104 26.4121 24.9556 27.0911 25.1238 27.4951C25.292 27.8991 25.5399 28.5523 25.6638 28.9563C25.7877 29.3603 25.9559 30.0393 26.0444 30.4605C26.1684 31.0535 26.2038 31.6466 26.2038 32.9961C26.2038 34.3455 26.1684 34.9386 26.0444 35.5317C25.9559 35.9528 25.7877 36.6319 25.6638 37.0358C25.5399 37.4398 25.292 38.0931 25.1238 38.497C24.9556 38.901 24.6104 39.5801 24.3625 40.0012C24.1147 40.4224 23.6809 41.067 23.4153 41.4194C23.1409 41.7719 22.6629 42.3305 22.3442 42.6486C21.9813 43.0268 21.6626 43.2674 21.4679 43.3276C21.2997 43.3792 21.0076 43.3964 20.8305 43.362C20.6269 43.3362 20.3614 43.1987 20.1755 43.0268C19.9719 42.8463 19.8391 42.6314 19.786 42.4079C19.7506 42.2188 19.7506 41.9438 19.786 41.8062C19.8302 41.6687 20.1666 41.196 20.5384 40.7748C20.9102 40.3536 21.3882 39.752 21.6007 39.4425C21.8131 39.1331 22.1495 38.5572 22.3619 38.1532C22.5655 37.7493 22.84 37.1132 22.9727 36.735C23.1055 36.3568 23.2914 35.7208 23.3799 35.3168C23.5127 34.7495 23.5481 34.2338 23.5481 32.9961C23.5481 31.7583 23.5127 31.2426 23.3799 30.6753C23.2914 30.2714 23.1055 29.6353 22.9727 29.2571C22.84 28.8789 22.5655 28.2429 22.3619 27.8389C22.1583 27.4349 21.8131 26.859 21.6007 26.5496C21.3882 26.2402 20.9102 25.6385 20.5384 25.2173C20.1666 24.7962 19.8302 24.3234 19.786 24.1859C19.7506 24.0398 19.7506 23.7733 19.7948 23.5842C19.8391 23.3951 19.9453 23.1459 20.0338 23.0255Z" fill="white"/>
<path d="M49.5822 23.3779C49.8655 23.0771 50.2284 22.7763 50.3701 22.7161C50.5117 22.6559 50.7418 22.6044 50.8835 22.5958C51.0163 22.5958 51.2553 22.6473 51.4146 22.7161C51.5651 22.7763 51.7864 22.9224 51.9015 23.0341C52.0077 23.1459 52.1316 23.3951 52.1759 23.5842C52.2201 23.7733 52.2201 24.0398 52.1847 24.1859C52.1405 24.3234 51.8041 24.7962 51.4323 25.2173C51.0517 25.6385 50.5559 26.2831 50.3081 26.6355C50.0691 26.988 49.7238 27.5896 49.5291 27.9678C49.3432 28.346 49.0776 29.025 48.9272 29.472C48.7855 29.9189 48.5996 30.6581 48.52 31.1051C48.4403 31.5521 48.3783 32.403 48.3783 32.9961C48.3783 33.5891 48.4403 34.4401 48.52 34.887C48.5996 35.334 48.7944 36.1076 48.9626 36.6061C49.1219 37.1046 49.4229 37.818 49.6265 38.1962C49.8212 38.5744 50.1576 39.1331 50.3701 39.4425C50.5825 39.752 51.0605 40.3536 51.4323 40.7748C51.8041 41.196 52.1405 41.6687 52.1847 41.8062C52.2201 41.9438 52.2201 42.2188 52.1847 42.4079C52.1316 42.6314 51.9988 42.8463 51.7952 43.0268C51.6093 43.1987 51.3438 43.3362 51.149 43.362C50.9631 43.3964 50.671 43.3792 50.5028 43.3276C50.3081 43.2674 49.9894 43.0268 49.6265 42.6486C49.3078 42.3305 48.8298 41.7719 48.5554 41.4194C48.2898 41.067 47.856 40.4224 47.6082 40.0012C47.3603 39.5801 47.0151 38.901 46.8469 38.497C46.6787 38.0931 46.4309 37.4398 46.3069 37.0358C46.183 36.6319 46.0148 35.9528 45.9263 35.5317C45.8024 34.9386 45.7669 34.3455 45.7669 32.9961C45.7669 31.6466 45.8024 31.0535 45.9263 30.4605C46.0148 30.0393 46.183 29.3603 46.3069 28.9563C46.4309 28.5523 46.6787 27.8991 46.8469 27.4951C47.0151 27.0911 47.3603 26.4121 47.6082 25.9909C47.856 25.5697 48.2898 24.9251 48.5554 24.5727C48.8298 24.2203 49.2901 23.6788 49.5822 23.3779Z" fill="white"/>
</svg>
