<svg width="72" height="67" viewBox="0 0 72 67" fill="none" xmlns="http://www.w3.org/2000/svg">
<rect width="72" height="67" rx="10" fill="#E85B25"/>
<path fill-rule="evenodd" clip-rule="evenodd" d="M35.9156 15.0009C36.9352 14.9938 37.5047 15.029 38.2641 15.1415C38.8195 15.2189 39.6141 15.3595 40.043 15.458C40.4719 15.5494 41.2313 15.7674 41.7305 15.9362C42.2297 16.105 42.9328 16.3722 43.2773 16.5269C43.6219 16.6886 44.2406 16.9981 44.6484 17.2161C45.0562 17.4341 45.6539 17.7998 45.9844 18.0178C46.3148 18.2358 46.8984 18.6718 47.2852 18.9812C47.6719 19.2907 48.3188 19.8744 48.7195 20.2752C49.1203 20.6761 49.7039 21.323 50.0133 21.7098C50.3227 22.0966 50.7586 22.6803 50.9766 23.0108C51.1945 23.3414 51.5602 23.9391 51.7781 24.347C51.9961 24.7549 52.3055 25.3737 52.4672 25.7183C52.6219 26.0629 52.9031 26.8084 53.0859 27.3709C53.2758 27.9335 53.5078 28.7845 53.6063 29.2697C53.7047 29.755 53.8312 30.5285 53.8945 30.9927C53.9508 31.4568 54 32.3429 54 32.9618C54 33.5806 53.9508 34.4808 53.8945 34.966C53.8312 35.4512 53.7047 36.2389 53.6063 36.7241C53.5078 37.2094 53.2758 38.0603 53.0859 38.6229C52.9031 39.1855 52.6219 39.9309 52.4672 40.2755C52.3055 40.6201 51.9961 41.239 51.7781 41.6468C51.5602 42.0547 51.1945 42.6525 50.9766 42.983C50.7586 43.3135 50.3227 43.8972 50.0133 44.284C49.7039 44.6708 49.1203 45.3178 48.7195 45.7186C48.3188 46.1195 47.6719 46.7032 47.2852 47.0126C46.8984 47.322 46.3148 47.758 45.9844 47.976C45.6539 48.194 45.0562 48.5597 44.6484 48.7777C44.2406 48.9958 43.6219 49.3052 43.2773 49.4669C42.9328 49.6216 42.2297 49.8889 41.7305 50.0577C41.2313 50.2264 40.4719 50.4444 40.043 50.5359C39.6141 50.6343 38.8195 50.775 38.2641 50.8523C37.5539 50.9578 36.907 51 36 51C35.093 51 34.4461 50.9578 33.7289 50.8523C33.1805 50.775 32.3859 50.6343 31.957 50.5359C31.5281 50.4444 30.7688 50.2264 30.2695 50.0577C29.7633 49.8889 29.0672 49.6216 28.7227 49.4669C28.3781 49.3052 27.7594 48.9958 27.3516 48.7777C26.9438 48.5597 26.3461 48.194 26.0156 47.976C25.6852 47.758 25.1016 47.322 24.7148 47.0126C24.3281 46.7032 23.6813 46.1195 23.2805 45.7186C22.8797 45.3178 22.2961 44.6708 21.9867 44.284C21.6773 43.8972 21.2414 43.3135 21.0234 42.983C20.8055 42.6525 20.4398 42.0547 20.2219 41.6468C20.0039 41.239 19.6945 40.6201 19.5328 40.2755C19.3781 39.9309 19.0969 39.1855 18.9141 38.6229C18.7242 38.0603 18.4922 37.2094 18.3937 36.7241C18.2953 36.2389 18.1688 35.4653 18.1055 35.0012C18.0492 34.537 18 33.6509 18 33.0321C18 32.4132 18.0492 31.5131 18.1055 31.0278C18.1688 30.5426 18.2953 29.755 18.3937 29.2697C18.4922 28.7845 18.7242 27.9335 18.9141 27.3709C19.0969 26.8084 19.3781 26.0629 19.5328 25.7183C19.6945 25.3737 20.0039 24.7549 20.2219 24.347C20.4398 23.9391 20.8055 23.3414 21.0234 23.0108C21.2414 22.6803 21.6773 22.0966 21.9867 21.7098C22.2961 21.323 22.8797 20.6761 23.2805 20.2752C23.6813 19.8744 24.3281 19.2907 24.7148 18.9812C25.1016 18.6718 25.6852 18.2358 26.0156 18.0178C26.3461 17.7998 26.9438 17.4341 27.3516 17.2161C27.7594 16.9981 28.3781 16.6886 28.7227 16.5269C29.0672 16.3722 29.8125 16.0909 30.375 15.908C30.9375 15.7252 31.7109 15.5072 32.0977 15.4228C32.4844 15.3384 33.1945 15.2118 33.6797 15.1415C34.2773 15.0501 34.9875 15.0079 35.9086 15.0009H35.9156ZM35.2758 23.9602C35.1562 24.0376 35.0086 24.2274 34.9383 24.3822C34.8258 24.6424 34.8117 24.9588 34.8117 28.2359V31.8014C27.9703 31.8014 27.6539 31.8155 27.3938 31.928C27.2391 31.9983 27.0352 32.1671 26.9367 32.3007C26.7891 32.4976 26.7609 32.6242 26.7609 32.9969C26.7609 33.3696 26.7891 33.4962 26.9367 33.6931C27.0352 33.8267 27.2391 33.9955 27.3938 34.0658C27.6539 34.1784 27.9703 34.1924 31.2398 34.1924H34.8117C34.8117 41.035 34.8258 41.3515 34.9383 41.6117C35.0086 41.7664 35.1773 41.9703 35.3109 42.0688C35.5078 42.2165 35.6344 42.2446 36.007 42.2446C36.3797 42.2446 36.5063 42.2165 36.7031 42.0688C36.8367 41.9703 37.0055 41.7664 37.0758 41.6117C37.1883 41.3515 37.2023 41.035 37.2023 37.7579V34.1924C44.0438 34.1924 44.3602 34.1784 44.6203 34.0658C44.775 33.9955 44.9789 33.8267 45.0773 33.6931C45.225 33.4962 45.2531 33.3696 45.2531 32.9969C45.2531 32.6242 45.225 32.4976 45.0773 32.3007C44.9789 32.1671 44.775 31.9983 44.6203 31.928C44.3602 31.8155 44.0437 31.8014 40.7672 31.8014H37.2023C37.2023 24.9588 37.1883 24.6424 37.0758 24.3822C37.0055 24.2274 36.8367 24.0235 36.7031 23.925C36.5344 23.7985 36.3586 23.7492 36.0773 23.7352C35.8664 23.7281 35.6414 23.7422 35.5852 23.7633C35.5289 23.7914 35.3883 23.8758 35.2758 23.9602Z" fill="white"/>
</svg>
