<svg width="20" height="18" viewBox="0 0 20 18" fill="none" xmlns="http://www.w3.org/2000/svg">
<path d="M4.39073 1.18219C4.57271 1.12301 4.84569 1.05791 4.99734 1.02832C5.14899 1.00464 5.55542 0.992807 5.90725 1.00464C6.33794 1.01648 6.67765 1.06383 6.96882 1.1526C7.19933 1.22362 7.56936 1.37158 7.78774 1.48403C8.00612 1.59056 8.34582 1.80953 8.53994 1.96341C8.74012 2.12321 9.05555 2.42504 9.23754 2.6381C9.42558 2.85116 9.66823 3.20034 9.98366 3.78625L10.2566 3.31279C10.4508 2.98728 10.7055 2.67361 11.0877 2.30667C11.5002 1.90423 11.761 1.70892 12.125 1.52546C12.3919 1.38933 12.8165 1.2177 13.0652 1.14668C13.4413 1.02832 13.6536 1.00464 14.2785 1.00464C14.8305 1.01056 15.1338 1.03424 15.4007 1.11117C15.6009 1.17036 15.983 1.32423 16.2499 1.44852C16.5168 1.5728 16.9233 1.83321 17.1538 2.02259C17.3843 2.21198 17.724 2.54932 17.8999 2.78014C18.0819 3.01095 18.3367 3.40748 18.4641 3.66789C18.5975 3.92829 18.7613 4.35441 18.828 4.61482C18.9008 4.87522 18.9736 5.35461 18.9918 5.68011C19.01 6.01154 18.9979 6.485 18.9554 6.74541C18.919 7.00582 18.822 7.40826 18.7492 7.63316C18.6703 7.85805 18.4944 8.2605 18.3609 8.5209C18.2275 8.78131 17.9606 9.24886 17.7604 9.55661C17.5663 9.86436 17.2084 10.3733 16.9718 10.6811C16.7292 10.9888 16.2621 11.5333 15.9345 11.8943C15.6009 12.2554 14.8911 12.9596 14.3634 13.4627C13.8296 13.9658 13.0228 14.6878 12.5739 15.0666C12.125 15.4453 11.4335 16.0135 11.0331 16.3331C10.6327 16.6527 10.2506 16.9367 10.1838 16.9723C10.1171 17.0019 9.98973 17.0078 9.89267 16.99C9.80168 16.9723 9.41952 16.7119 9.04949 16.41C8.67339 16.1141 7.96972 15.5341 7.48444 15.1257C6.99915 14.7174 5.97398 13.7705 5.20359 13.0247C4.43319 12.2731 3.57181 11.3795 3.29883 11.0362C3.01979 10.6929 2.6073 10.1366 2.37679 9.79334C2.14628 9.45008 1.84297 8.94702 1.69738 8.66886C1.5518 8.3907 1.36375 7.97642 1.27882 7.75152C1.1939 7.52663 1.09684 7.12418 1.05438 6.86378C0.999784 6.55602 0.987652 6.13582 1.01192 5.68011C1.03618 5.21848 1.09684 4.81604 1.18177 4.52604C1.25456 4.28339 1.40621 3.89278 1.52147 3.66789C1.64279 3.43707 1.8551 3.09381 1.99462 2.8985C2.13414 2.7032 2.40105 2.40728 2.57697 2.24749C2.75895 2.08178 3.02586 1.8628 3.17751 1.76219C3.32916 1.66158 3.58394 1.51362 3.75379 1.43668C3.91757 1.35382 4.20875 1.24138 4.39073 1.18219Z" stroke="white" stroke-width="2"/>
</svg>
