<svg width="19" height="19" viewBox="0 0 19 19" fill="none" xmlns="http://www.w3.org/2000/svg">
<path d="M4.11645 2.88889H18L16.1111 9.5H5.13356M17.0556 13.2778H5.72222L3.83333 1H1M6.66667 17.0556C6.66667 17.5772 6.24382 18 5.72222 18C5.20062 18 4.77778 17.5772 4.77778 17.0556C4.77778 16.5339 5.20062 16.1111 5.72222 16.1111C6.24382 16.1111 6.66667 16.5339 6.66667 17.0556ZM17.0556 17.0556C17.0556 17.5772 16.6327 18 16.1111 18C15.5895 18 15.1667 17.5772 15.1667 17.0556C15.1667 16.5339 15.5895 16.1111 16.1111 16.1111C16.6327 16.1111 17.0556 16.5339 17.0556 17.0556Z" stroke="white" stroke-width="1.88889" stroke-linecap="round" stroke-linejoin="round"/>
</svg>
