<svg width="163" height="134" viewBox="0 0 163 134" fill="none" xmlns="http://www.w3.org/2000/svg">
<path fill-rule="evenodd" clip-rule="evenodd" d="M11.261 57.9048C54.9545 38.8357 84.1614 26.5106 98.8817 20.4643C140.472 3.2557 149.118 0.232549 154.725 0C155.894 0 158.697 0.232551 160.567 1.62785C161.969 2.79059 162.436 4.41844 162.67 5.58119C162.903 6.74393 163.137 9.30197 162.903 11.3949C160.567 34.8824 150.987 92.3221 145.846 118.6C143.743 129.762 139.538 133.483 135.566 133.948C126.92 134.646 120.144 128.135 111.733 122.786C98.648 114.182 91.1711 108.833 78.3201 100.461C63.5998 90.6942 73.1796 85.3456 81.5912 76.7413C83.6941 74.4158 122.247 39.7659 122.948 36.5102C122.948 36.0451 123.182 34.6498 122.247 33.9522C121.313 33.2546 120.144 33.4871 119.21 33.7196C117.808 33.9522 96.7788 47.9052 55.8892 75.346C49.8141 79.5319 44.44 81.3922 39.5333 81.3922C34.1592 81.3922 23.8784 78.3691 16.1678 75.8111C6.82157 72.7879 -0.655394 71.1601 0.0455714 66.044C0.512882 63.486 4.25136 60.6954 11.261 57.9048Z" fill="white"/>
</svg>
